%TF.GenerationSoftware,KiCad,Pcbnew,(7.0.0)*%
%TF.CreationDate,2026-09-24T02:40:26+02:00*%
%TF.ProjectId,Coplanar IFA,436f706c-616e-4617-9220-4946412e6b69,rev?*%
%TF.SameCoordinates,Original*%
%TF.FileFunction,Copper,L1,Top*%
%TF.FilePolarity,Positive*%
%FSLAX46Y46*%
G04 Gerber Fmt 4.6, Leading zero omitted, Abs format (unit mm)*
G04 Created by KiCad (PCBNEW (7.0.0)) date 2026-09-24 02:40:26*
%MOMM*%
%LPD*%
G01*
G04 APERTURE LIST*
G04 Aperture macros list*
%AMRoundRect*
0 Rectangle with rounded corners*
0 $1 Rounding radius*
0 $2 $3 $4 $5 $6 $7 $8 $9 X,Y pos of 4 corners*
0 Add a 4 corners polygon primitive as box body*
4,1,4,$2,$3,$4,$5,$6,$7,$8,$9,$2,$3,0*
0 Add four circle primitives for the rounded corners*
1,1,$1+$1,$2,$3*
1,1,$1+$1,$4,$5*
1,1,$1+$1,$6,$7*
1,1,$1+$1,$8,$9*
0 Add four rect primitives between the rounded corners*
20,1,$1+$1,$2,$3,$4,$5,0*
20,1,$1+$1,$4,$5,$6,$7,0*
20,1,$1+$1,$6,$7,$8,$9,0*
20,1,$1+$1,$8,$9,$2,$3,0*%
G04 Aperture macros list end*
%TA.AperFunction,SMDPad,CuDef*%
%ADD10RoundRect,0.225000X-0.225000X-0.250000X0.225000X-0.250000X0.225000X0.250000X-0.225000X0.250000X0*%
%TD*%
%TA.AperFunction,SMDPad,CuDef*%
%ADD11C,0.500000*%
%TD*%
%TA.AperFunction,SMDPad,CuDef*%
%ADD12RoundRect,0.225000X0.225000X0.250000X-0.225000X0.250000X-0.225000X-0.250000X0.225000X-0.250000X0*%
%TD*%
%TA.AperFunction,ComponentPad*%
%ADD13C,0.970000*%
%TD*%
%TA.AperFunction,SMDPad,CuDef*%
%ADD14R,2.420000X5.080000*%
%TD*%
%TA.AperFunction,SMDPad,CuDef*%
%ADD15R,0.460000X0.950000*%
%TD*%
%TA.AperFunction,SMDPad,CuDef*%
%ADD16R,2.290000X5.080000*%
%TD*%
%TA.AperFunction,SMDPad,CuDef*%
%ADD17RoundRect,0.218750X-0.218750X-0.256250X0.218750X-0.256250X0.218750X0.256250X-0.218750X0.256250X0*%
%TD*%
%TA.AperFunction,ViaPad*%
%ADD18C,0.800000*%
%TD*%
%TA.AperFunction,Conductor*%
%ADD19C,1.000000*%
%TD*%
%TA.AperFunction,Conductor*%
%ADD20C,2.000000*%
%TD*%
%TA.AperFunction,Conductor*%
%ADD21C,2.500000*%
%TD*%
G04 APERTURE END LIST*
%TO.C,NT1*%
G36*
X68000000Y-103250000D02*
G01*
X67000000Y-103250000D01*
X67000000Y-102750000D01*
X68000000Y-102750000D01*
X68000000Y-103250000D01*
G37*
%TD*%
D10*
%TO.P,C1,1*%
%TO.N,/ANT*%
X82450000Y-110000000D03*
%TO.P,C1,2*%
%TO.N,GND*%
X84000000Y-110000000D03*
%TD*%
D11*
%TO.P,NT1,1,1*%
%TO.N,/ANT*%
X67000000Y-103000000D03*
%TO.P,NT1,2,2*%
%TO.N,GND*%
X68000000Y-103000000D03*
%TD*%
D12*
%TO.P,C2,2*%
%TO.N,GND*%
X82225000Y-116000000D03*
%TO.P,C2,1*%
%TO.N,Net-(J1-In)*%
X83775000Y-116000000D03*
%TD*%
D13*
%TO.P,J1,2,Ext*%
%TO.N,GND*%
X87380000Y-125510000D03*
D14*
X78619999Y-122069999D03*
D15*
X78619999Y-125059999D03*
D14*
X87379999Y-122069999D03*
D13*
X78620000Y-125510000D03*
D15*
X87379999Y-125059999D03*
D16*
%TO.P,J1,1,In*%
%TO.N,Net-(J1-In)*%
X82999999Y-122069999D03*
%TD*%
D17*
%TO.P,L1,1,1*%
%TO.N,/ANT*%
X82212500Y-113000000D03*
%TO.P,L1,2,2*%
%TO.N,Net-(J1-In)*%
X83787500Y-113000000D03*
%TD*%
D18*
%TO.N,GND*%
X74000000Y-103000000D03*
X79000000Y-103000000D03*
X130000000Y-103000000D03*
X125000000Y-103000000D03*
X120000000Y-103000000D03*
X115000000Y-103000000D03*
X110000000Y-103000000D03*
X105000000Y-103000000D03*
X100000000Y-103000000D03*
X95000000Y-103000000D03*
X90000000Y-103000000D03*
%TD*%
D19*
%TO.N,/ANT*%
X67000000Y-103000000D02*
X66000000Y-102000000D01*
X66000000Y-102000000D02*
X66000000Y-101000000D01*
D20*
X71000000Y-81000000D02*
X127000000Y-81000000D01*
X80000000Y-73000000D02*
X115000000Y-73000000D01*
X115000000Y-68000000D02*
X104000000Y-68000000D01*
X127000000Y-77000000D02*
X80000000Y-77000000D01*
X115000000Y-73000000D02*
X115000000Y-68000000D01*
X80000000Y-77000000D02*
X80000000Y-73000000D01*
X127000000Y-81000000D02*
X127000000Y-77000000D01*
X71000000Y-84000000D02*
X71000000Y-81000000D01*
X133000000Y-84000000D02*
X71000000Y-84000000D01*
X133000000Y-88000000D02*
X133000000Y-84000000D01*
X69000000Y-88000000D02*
X133000000Y-88000000D01*
X69000000Y-92000000D02*
X69000000Y-88000000D01*
X133000000Y-92000000D02*
X69000000Y-92000000D01*
X133000000Y-96000000D02*
X133000000Y-92000000D01*
X66000000Y-96000000D02*
X133000000Y-96000000D01*
X66000000Y-101000000D02*
X66000000Y-96000000D01*
D19*
%TO.N,Net-(J1-In)*%
X83775000Y-121295000D02*
X83000000Y-122070000D01*
X83775000Y-116000000D02*
X83775000Y-121295000D01*
X83775000Y-113012500D02*
X83787500Y-113000000D01*
X83775000Y-116000000D02*
X83775000Y-113012500D01*
%TO.N,/ANT*%
X82212500Y-110237500D02*
X82450000Y-110000000D01*
X82212500Y-113000000D02*
X82212500Y-110237500D01*
X82450000Y-105550000D02*
X83000000Y-105000000D01*
X82450000Y-110000000D02*
X82450000Y-105550000D01*
D21*
X83000000Y-105000000D02*
X83000000Y-97000000D01*
%TD*%
%TA.AperFunction,Conductor*%
%TO.N,GND*%
G36*
X137930440Y-100018336D02*
G01*
X137976153Y-100067867D01*
X137989204Y-100133993D01*
X137524437Y-105902713D01*
X137521951Y-105919351D01*
X136542762Y-110378429D01*
X136537341Y-110396455D01*
X135616577Y-112783749D01*
X135615833Y-112785633D01*
X134416166Y-115750847D01*
X134411077Y-115761846D01*
X132896609Y-118655157D01*
X132890914Y-118664925D01*
X130788099Y-121920897D01*
X130779784Y-121932293D01*
X128810658Y-124331460D01*
X127372808Y-126106305D01*
X127339673Y-126134925D01*
X126775485Y-126469258D01*
X126712390Y-126486582D01*
X117631377Y-126495366D01*
X117631059Y-126495366D01*
X108179030Y-126480243D01*
X87998560Y-126485007D01*
X87939648Y-126470135D01*
X87894874Y-126429060D01*
X87874988Y-126371646D01*
X87874163Y-126362072D01*
X87867169Y-126350722D01*
X87391542Y-125875095D01*
X87380000Y-125868431D01*
X87368456Y-125875096D01*
X86892829Y-126350722D01*
X86885834Y-126362073D01*
X86884985Y-126371941D01*
X86865109Y-126429337D01*
X86820358Y-126470408D01*
X86761471Y-126485299D01*
X79238738Y-126487075D01*
X79179826Y-126472202D01*
X79135052Y-126431128D01*
X79115166Y-126373714D01*
X79114163Y-126362072D01*
X79107169Y-126350722D01*
X78631542Y-125875095D01*
X78620000Y-125868431D01*
X78608456Y-125875096D01*
X78132829Y-126350722D01*
X78125834Y-126362073D01*
X78124807Y-126374008D01*
X78104931Y-126431405D01*
X78060180Y-126472476D01*
X78001293Y-126487367D01*
X73035953Y-126488540D01*
X72986069Y-126478076D01*
X72944609Y-126448430D01*
X71296614Y-124654518D01*
X76910000Y-124654518D01*
X76910353Y-124661114D01*
X76915573Y-124709667D01*
X76919111Y-124724641D01*
X76963547Y-124843777D01*
X76971962Y-124859189D01*
X77047498Y-124960092D01*
X77059907Y-124972501D01*
X77160810Y-125048037D01*
X77176222Y-125056452D01*
X77295358Y-125100888D01*
X77310332Y-125104426D01*
X77358885Y-125109646D01*
X77365482Y-125110000D01*
X77544821Y-125110000D01*
X77600573Y-125123240D01*
X77644419Y-125160133D01*
X77666995Y-125212800D01*
X77663482Y-125269995D01*
X77651020Y-125311075D01*
X77648654Y-125322970D01*
X77630831Y-125503939D01*
X77630831Y-125516061D01*
X77648654Y-125697029D01*
X77651020Y-125708924D01*
X77703806Y-125882935D01*
X77708447Y-125894141D01*
X77762161Y-125994631D01*
X77769650Y-126003101D01*
X77779276Y-125997169D01*
X78476069Y-125300377D01*
X78481537Y-125291454D01*
X78758462Y-125291454D01*
X78763930Y-125300377D01*
X79460722Y-125997169D01*
X79470348Y-126003100D01*
X79477838Y-125994630D01*
X79531552Y-125894141D01*
X79536193Y-125882935D01*
X79588979Y-125708924D01*
X79591345Y-125697029D01*
X79609169Y-125516061D01*
X79609169Y-125503939D01*
X79591345Y-125322970D01*
X79588979Y-125311075D01*
X79576518Y-125269995D01*
X79573005Y-125212800D01*
X79595581Y-125160133D01*
X79639427Y-125123240D01*
X79695179Y-125110000D01*
X79874518Y-125110000D01*
X79881114Y-125109646D01*
X79929667Y-125104426D01*
X79944641Y-125100888D01*
X80063777Y-125056452D01*
X80079189Y-125048037D01*
X80180092Y-124972501D01*
X80192501Y-124960092D01*
X80268037Y-124859189D01*
X80276452Y-124843777D01*
X80320888Y-124724641D01*
X80324426Y-124709667D01*
X80329646Y-124661114D01*
X80330000Y-124654518D01*
X80330000Y-122336326D01*
X80326549Y-122323450D01*
X80313674Y-122320000D01*
X78886326Y-122320000D01*
X78873450Y-122323450D01*
X78870000Y-122336326D01*
X78870000Y-125084613D01*
X78860561Y-125132066D01*
X78858255Y-125135516D01*
X78850000Y-125166326D01*
X78850000Y-125172615D01*
X78837920Y-125225999D01*
X78804035Y-125268982D01*
X78758462Y-125291454D01*
X78481537Y-125291454D01*
X78435965Y-125268982D01*
X78402080Y-125225999D01*
X78390000Y-125172615D01*
X78390000Y-125166326D01*
X78381744Y-125135516D01*
X78379439Y-125132066D01*
X78370000Y-125084613D01*
X78370000Y-122336326D01*
X78366549Y-122323450D01*
X78353674Y-122320000D01*
X76926326Y-122320000D01*
X76913450Y-122323450D01*
X76910000Y-122336326D01*
X76910000Y-124654518D01*
X71296614Y-124654518D01*
X70084665Y-123335261D01*
X70072193Y-123319225D01*
X69421224Y-122323450D01*
X69081430Y-121803674D01*
X76910000Y-121803674D01*
X76913450Y-121816549D01*
X76926326Y-121820000D01*
X78353674Y-121820000D01*
X78366549Y-121816549D01*
X78370000Y-121803674D01*
X78870000Y-121803674D01*
X78873450Y-121816549D01*
X78886326Y-121820000D01*
X80313674Y-121820000D01*
X80326549Y-121816549D01*
X80330000Y-121803674D01*
X80330000Y-119485482D01*
X80329646Y-119478885D01*
X80324426Y-119430332D01*
X80320888Y-119415358D01*
X80276452Y-119296222D01*
X80268037Y-119280810D01*
X80192501Y-119179907D01*
X80180092Y-119167498D01*
X80079189Y-119091962D01*
X80063777Y-119083547D01*
X79944641Y-119039111D01*
X79929667Y-119035573D01*
X79881114Y-119030353D01*
X79874518Y-119030000D01*
X78886326Y-119030000D01*
X78873450Y-119033450D01*
X78870000Y-119046326D01*
X78870000Y-121803674D01*
X78370000Y-121803674D01*
X78370000Y-119046326D01*
X78366549Y-119033450D01*
X78353674Y-119030000D01*
X77365482Y-119030000D01*
X77358885Y-119030353D01*
X77310332Y-119035573D01*
X77295358Y-119039111D01*
X77176222Y-119083547D01*
X77160810Y-119091962D01*
X77059907Y-119167498D01*
X77047498Y-119179907D01*
X76971962Y-119280810D01*
X76963547Y-119296222D01*
X76919111Y-119415358D01*
X76915573Y-119430332D01*
X76910353Y-119478885D01*
X76910000Y-119485482D01*
X76910000Y-121803674D01*
X69081430Y-121803674D01*
X66770467Y-118268639D01*
X66762053Y-118253570D01*
X65841103Y-116295165D01*
X81275001Y-116295165D01*
X81275321Y-116301447D01*
X81284455Y-116390867D01*
X81287274Y-116404036D01*
X81336180Y-116551625D01*
X81342246Y-116564633D01*
X81423632Y-116696580D01*
X81432537Y-116707842D01*
X81542157Y-116817462D01*
X81553419Y-116826367D01*
X81685366Y-116907753D01*
X81698374Y-116913819D01*
X81845969Y-116962727D01*
X81859125Y-116965543D01*
X81948555Y-116974680D01*
X81954832Y-116975000D01*
X81958674Y-116975000D01*
X81971549Y-116971549D01*
X81975000Y-116958674D01*
X81975000Y-116266326D01*
X81971549Y-116253450D01*
X81958674Y-116250000D01*
X81291327Y-116250000D01*
X81278451Y-116253450D01*
X81275001Y-116266326D01*
X81275001Y-116295165D01*
X65841103Y-116295165D01*
X65577059Y-115733674D01*
X81275000Y-115733674D01*
X81278450Y-115746549D01*
X81291326Y-115750000D01*
X81958674Y-115750000D01*
X81971549Y-115746549D01*
X81975000Y-115733674D01*
X81975000Y-115041327D01*
X81971549Y-115028451D01*
X81958674Y-115025001D01*
X81954835Y-115025001D01*
X81948552Y-115025321D01*
X81859132Y-115034455D01*
X81845963Y-115037274D01*
X81698374Y-115086180D01*
X81685366Y-115092246D01*
X81553419Y-115173632D01*
X81542157Y-115182537D01*
X81432537Y-115292157D01*
X81423632Y-115303419D01*
X81342246Y-115435366D01*
X81336180Y-115448374D01*
X81287272Y-115595969D01*
X81284456Y-115609125D01*
X81275319Y-115698555D01*
X81275000Y-115704832D01*
X81275000Y-115733674D01*
X65577059Y-115733674D01*
X64260738Y-112934511D01*
X64252277Y-112910269D01*
X62306701Y-104675503D01*
X62303645Y-104655099D01*
X62259952Y-103988158D01*
X62008652Y-100152234D01*
X62022394Y-100086880D01*
X62068041Y-100038131D01*
X62132350Y-100020129D01*
X63835028Y-100019678D01*
X64375467Y-100019535D01*
X64437481Y-100036137D01*
X64482882Y-100081526D01*
X64499500Y-100143535D01*
X64499500Y-101062067D01*
X64499711Y-101064617D01*
X64499712Y-101064633D01*
X64514467Y-101242701D01*
X64514468Y-101242709D01*
X64514892Y-101247821D01*
X64516149Y-101252788D01*
X64516151Y-101252795D01*
X64574678Y-101483910D01*
X64575937Y-101488881D01*
X64577997Y-101493577D01*
X64673766Y-101711910D01*
X64673769Y-101711916D01*
X64675827Y-101716607D01*
X64678627Y-101720893D01*
X64678631Y-101720900D01*
X64767491Y-101856910D01*
X64811836Y-101924785D01*
X64815310Y-101928559D01*
X64815311Y-101928560D01*
X64980256Y-102107738D01*
X64979227Y-102108684D01*
X65000088Y-102136370D01*
X65012576Y-102179344D01*
X65014287Y-102196171D01*
X65014290Y-102196186D01*
X65014926Y-102202438D01*
X65016807Y-102208435D01*
X65016810Y-102208447D01*
X65024032Y-102231466D01*
X65027772Y-102246702D01*
X65032031Y-102270464D01*
X65032035Y-102270478D01*
X65033142Y-102276653D01*
X65035471Y-102282483D01*
X65055020Y-102331425D01*
X65058179Y-102340298D01*
X65075841Y-102396588D01*
X65078891Y-102402083D01*
X65090603Y-102423184D01*
X65097337Y-102437363D01*
X65106290Y-102459778D01*
X65106292Y-102459783D01*
X65108623Y-102465617D01*
X65112082Y-102470866D01*
X65112085Y-102470871D01*
X65141080Y-102514867D01*
X65145961Y-102522923D01*
X65171536Y-102568999D01*
X65171538Y-102569002D01*
X65174591Y-102574502D01*
X65178689Y-102579275D01*
X65194404Y-102597581D01*
X65203855Y-102610116D01*
X65217133Y-102630263D01*
X65217138Y-102630269D01*
X65220598Y-102635519D01*
X65225044Y-102639965D01*
X65225045Y-102639966D01*
X65262300Y-102677221D01*
X65268705Y-102684131D01*
X65307134Y-102728895D01*
X65331198Y-102747522D01*
X65342967Y-102757888D01*
X66328420Y-103743341D01*
X66446593Y-103839698D01*
X66626951Y-103933909D01*
X66822582Y-103989887D01*
X67025477Y-104005337D01*
X67227328Y-103979630D01*
X67419873Y-103913816D01*
X67595227Y-103810591D01*
X67666384Y-103746301D01*
X67724989Y-103716761D01*
X67790466Y-103721271D01*
X67825474Y-103733521D01*
X67838977Y-103736603D01*
X67993077Y-103753966D01*
X68006923Y-103753966D01*
X68161022Y-103736603D01*
X68174524Y-103733521D01*
X68311859Y-103685464D01*
X68321440Y-103679063D01*
X68315586Y-103669139D01*
X68004060Y-103357613D01*
X67972525Y-103304043D01*
X67970951Y-103241905D01*
X67997603Y-103127054D01*
X68000822Y-103000000D01*
X68358431Y-103000000D01*
X68365095Y-103011542D01*
X68669139Y-103315586D01*
X68679063Y-103321440D01*
X68685464Y-103311859D01*
X68733521Y-103174524D01*
X68736603Y-103161022D01*
X68753966Y-103006923D01*
X68753966Y-102993077D01*
X68736603Y-102838977D01*
X68733521Y-102825475D01*
X68685464Y-102688139D01*
X68679063Y-102678558D01*
X68669139Y-102684412D01*
X68365096Y-102988456D01*
X68358431Y-103000000D01*
X68000822Y-103000000D01*
X68002757Y-102923637D01*
X67971634Y-102749991D01*
X67975376Y-102690998D01*
X68006008Y-102640438D01*
X68315585Y-102330860D01*
X68321440Y-102320934D01*
X68311863Y-102314535D01*
X68174517Y-102266476D01*
X68161025Y-102263397D01*
X68006923Y-102246034D01*
X67993077Y-102246034D01*
X67838976Y-102263396D01*
X67825478Y-102266477D01*
X67792286Y-102278092D01*
X67723739Y-102281941D01*
X67663651Y-102248731D01*
X67319249Y-101904329D01*
X67289648Y-101856910D01*
X67283883Y-101801308D01*
X67303121Y-101748828D01*
X67324173Y-101716607D01*
X67424063Y-101488881D01*
X67485108Y-101247821D01*
X67500500Y-101062067D01*
X67500500Y-100142673D01*
X67517107Y-100080682D01*
X67562481Y-100035297D01*
X67624467Y-100018673D01*
X81125467Y-100015091D01*
X81187481Y-100031693D01*
X81232882Y-100077082D01*
X81249500Y-100139091D01*
X81249500Y-105065494D01*
X81264198Y-105261630D01*
X81322580Y-105517416D01*
X81324275Y-105521734D01*
X81324276Y-105521738D01*
X81416734Y-105757318D01*
X81416737Y-105757324D01*
X81418432Y-105761643D01*
X81420750Y-105765658D01*
X81420753Y-105765664D01*
X81432887Y-105786680D01*
X81449500Y-105848680D01*
X81449500Y-109543459D01*
X81443813Y-109580582D01*
X81427272Y-109614300D01*
X81415743Y-109630863D01*
X81410074Y-109638381D01*
X81376774Y-109679221D01*
X81376771Y-109679224D01*
X81372802Y-109684093D01*
X81369896Y-109689655D01*
X81369888Y-109689668D01*
X81358710Y-109711066D01*
X81350582Y-109724482D01*
X81336800Y-109744284D01*
X81336795Y-109744292D01*
X81333205Y-109749451D01*
X81330728Y-109755221D01*
X81330725Y-109755228D01*
X81309939Y-109803665D01*
X81305899Y-109812171D01*
X81278591Y-109864451D01*
X81276863Y-109870489D01*
X81276860Y-109870497D01*
X81270220Y-109893701D01*
X81264959Y-109908478D01*
X81255442Y-109930657D01*
X81252960Y-109936442D01*
X81251694Y-109942597D01*
X81251692Y-109942607D01*
X81241087Y-109994212D01*
X81238842Y-110003359D01*
X81224342Y-110054034D01*
X81224339Y-110054047D01*
X81222613Y-110060082D01*
X81222136Y-110066342D01*
X81222135Y-110066349D01*
X81220301Y-110090429D01*
X81218122Y-110105963D01*
X81213266Y-110129597D01*
X81212000Y-110135759D01*
X81212000Y-110142050D01*
X81212000Y-110194741D01*
X81211642Y-110204156D01*
X81207640Y-110256705D01*
X81207640Y-110256710D01*
X81207163Y-110262976D01*
X81207956Y-110269209D01*
X81207957Y-110269215D01*
X81211006Y-110293151D01*
X81212000Y-110308817D01*
X81212000Y-113050742D01*
X81212316Y-113053853D01*
X81212317Y-113053865D01*
X81224244Y-113171147D01*
X81227426Y-113202438D01*
X81229306Y-113208431D01*
X81229308Y-113208439D01*
X81278049Y-113363789D01*
X81283093Y-113388300D01*
X81283874Y-113395946D01*
X81283876Y-113395958D01*
X81284564Y-113402685D01*
X81337451Y-113562287D01*
X81425719Y-113705391D01*
X81544609Y-113824281D01*
X81687713Y-113912549D01*
X81847315Y-113965436D01*
X81945826Y-113975500D01*
X81972726Y-113975500D01*
X82003806Y-113979457D01*
X82060215Y-113994063D01*
X82263436Y-114004369D01*
X82442546Y-113976930D01*
X82461324Y-113975500D01*
X82476025Y-113975500D01*
X82479174Y-113975500D01*
X82577685Y-113965436D01*
X82611496Y-113954231D01*
X82669363Y-113949381D01*
X82723093Y-113971408D01*
X82760903Y-114015482D01*
X82774500Y-114071938D01*
X82774500Y-114922041D01*
X82760903Y-114978496D01*
X82723093Y-115022571D01*
X82669363Y-115044598D01*
X82611496Y-115039747D01*
X82604027Y-115037272D01*
X82590874Y-115034456D01*
X82501444Y-115025319D01*
X82495168Y-115025000D01*
X82491326Y-115025000D01*
X82478450Y-115028450D01*
X82475000Y-115041326D01*
X82475000Y-116958673D01*
X82478450Y-116971548D01*
X82491326Y-116974999D01*
X82495165Y-116974999D01*
X82501447Y-116974678D01*
X82590867Y-116965544D01*
X82604033Y-116962725D01*
X82611496Y-116960253D01*
X82669363Y-116955402D01*
X82723093Y-116977429D01*
X82760903Y-117021504D01*
X82774500Y-117077959D01*
X82774500Y-118905501D01*
X82757887Y-118967501D01*
X82712500Y-119012888D01*
X82650500Y-119029501D01*
X81807128Y-119029501D01*
X81803850Y-119029853D01*
X81803838Y-119029854D01*
X81755231Y-119035079D01*
X81755225Y-119035080D01*
X81747517Y-119035909D01*
X81740252Y-119038618D01*
X81740246Y-119038620D01*
X81620980Y-119083104D01*
X81620978Y-119083104D01*
X81612669Y-119086204D01*
X81605572Y-119091516D01*
X81605568Y-119091519D01*
X81504550Y-119167141D01*
X81504546Y-119167144D01*
X81497454Y-119172454D01*
X81492144Y-119179546D01*
X81492141Y-119179550D01*
X81416519Y-119280568D01*
X81416516Y-119280572D01*
X81411204Y-119287669D01*
X81408104Y-119295978D01*
X81408104Y-119295980D01*
X81363620Y-119415247D01*
X81363619Y-119415250D01*
X81360909Y-119422517D01*
X81360079Y-119430227D01*
X81360079Y-119430232D01*
X81354855Y-119478819D01*
X81354854Y-119478831D01*
X81354500Y-119482127D01*
X81354500Y-119485448D01*
X81354500Y-119485449D01*
X81354500Y-124654560D01*
X81354500Y-124654578D01*
X81354501Y-124657872D01*
X81354853Y-124661150D01*
X81354854Y-124661161D01*
X81360079Y-124709768D01*
X81360080Y-124709773D01*
X81360909Y-124717483D01*
X81363619Y-124724749D01*
X81363620Y-124724753D01*
X81375016Y-124755306D01*
X81411204Y-124852331D01*
X81497454Y-124967546D01*
X81612669Y-125053796D01*
X81747517Y-125104091D01*
X81807127Y-125110500D01*
X84192872Y-125110499D01*
X84252483Y-125104091D01*
X84387331Y-125053796D01*
X84502546Y-124967546D01*
X84588796Y-124852331D01*
X84639091Y-124717483D01*
X84645500Y-124657873D01*
X84645500Y-124654518D01*
X85670000Y-124654518D01*
X85670353Y-124661114D01*
X85675573Y-124709667D01*
X85679111Y-124724641D01*
X85723547Y-124843777D01*
X85731962Y-124859189D01*
X85807498Y-124960092D01*
X85819907Y-124972501D01*
X85920810Y-125048037D01*
X85936222Y-125056452D01*
X86055358Y-125100888D01*
X86070332Y-125104426D01*
X86118885Y-125109646D01*
X86125482Y-125110000D01*
X86304821Y-125110000D01*
X86360573Y-125123240D01*
X86404419Y-125160133D01*
X86426995Y-125212800D01*
X86423482Y-125269995D01*
X86411020Y-125311075D01*
X86408654Y-125322970D01*
X86390831Y-125503939D01*
X86390831Y-125516061D01*
X86408654Y-125697029D01*
X86411020Y-125708924D01*
X86463806Y-125882935D01*
X86468447Y-125894141D01*
X86522161Y-125994631D01*
X86529650Y-126003101D01*
X86539276Y-125997169D01*
X87236069Y-125300377D01*
X87241537Y-125291454D01*
X87518462Y-125291454D01*
X87523930Y-125300377D01*
X88220722Y-125997169D01*
X88230348Y-126003100D01*
X88237838Y-125994630D01*
X88291552Y-125894141D01*
X88296193Y-125882935D01*
X88348979Y-125708924D01*
X88351345Y-125697029D01*
X88369169Y-125516061D01*
X88369169Y-125503939D01*
X88351345Y-125322970D01*
X88348979Y-125311075D01*
X88336518Y-125269995D01*
X88333005Y-125212800D01*
X88355581Y-125160133D01*
X88399427Y-125123240D01*
X88455179Y-125110000D01*
X88634518Y-125110000D01*
X88641114Y-125109646D01*
X88689667Y-125104426D01*
X88704641Y-125100888D01*
X88823777Y-125056452D01*
X88839189Y-125048037D01*
X88940092Y-124972501D01*
X88952501Y-124960092D01*
X89028037Y-124859189D01*
X89036452Y-124843777D01*
X89080888Y-124724641D01*
X89084426Y-124709667D01*
X89089646Y-124661114D01*
X89090000Y-124654518D01*
X89090000Y-122336326D01*
X89086549Y-122323450D01*
X89073674Y-122320000D01*
X87646326Y-122320000D01*
X87633450Y-122323450D01*
X87630000Y-122336326D01*
X87630000Y-125084613D01*
X87620561Y-125132066D01*
X87618255Y-125135516D01*
X87610000Y-125166326D01*
X87610000Y-125172615D01*
X87597920Y-125225999D01*
X87564035Y-125268982D01*
X87518462Y-125291454D01*
X87241537Y-125291454D01*
X87195965Y-125268982D01*
X87162080Y-125225999D01*
X87150000Y-125172615D01*
X87150000Y-125166326D01*
X87141744Y-125135516D01*
X87139439Y-125132066D01*
X87130000Y-125084613D01*
X87130000Y-122336326D01*
X87126549Y-122323450D01*
X87113674Y-122320000D01*
X85686326Y-122320000D01*
X85673450Y-122323450D01*
X85670000Y-122336326D01*
X85670000Y-124654518D01*
X84645500Y-124654518D01*
X84645499Y-121829027D01*
X84650709Y-121803674D01*
X85670000Y-121803674D01*
X85673450Y-121816549D01*
X85686326Y-121820000D01*
X87113674Y-121820000D01*
X87126549Y-121816549D01*
X87130000Y-121803674D01*
X87630000Y-121803674D01*
X87633450Y-121816549D01*
X87646326Y-121820000D01*
X89073674Y-121820000D01*
X89086549Y-121816549D01*
X89090000Y-121803674D01*
X89090000Y-119485482D01*
X89089646Y-119478885D01*
X89084426Y-119430332D01*
X89080888Y-119415358D01*
X89036452Y-119296222D01*
X89028037Y-119280810D01*
X88952501Y-119179907D01*
X88940092Y-119167498D01*
X88839189Y-119091962D01*
X88823777Y-119083547D01*
X88704641Y-119039111D01*
X88689667Y-119035573D01*
X88641114Y-119030353D01*
X88634518Y-119030000D01*
X87646326Y-119030000D01*
X87633450Y-119033450D01*
X87630000Y-119046326D01*
X87630000Y-121803674D01*
X87130000Y-121803674D01*
X87130000Y-119046326D01*
X87126549Y-119033450D01*
X87113674Y-119030000D01*
X86125482Y-119030000D01*
X86118885Y-119030353D01*
X86070332Y-119035573D01*
X86055358Y-119039111D01*
X85936222Y-119083547D01*
X85920810Y-119091962D01*
X85819907Y-119167498D01*
X85807498Y-119179907D01*
X85731962Y-119280810D01*
X85723547Y-119296222D01*
X85679111Y-119415358D01*
X85675573Y-119430332D01*
X85670353Y-119478885D01*
X85670000Y-119485482D01*
X85670000Y-121803674D01*
X84650709Y-121803674D01*
X84655546Y-121780132D01*
X84677565Y-121728822D01*
X84681584Y-121720358D01*
X84708910Y-121668049D01*
X84717278Y-121638801D01*
X84722542Y-121624012D01*
X84734540Y-121596058D01*
X84746415Y-121538265D01*
X84748648Y-121529165D01*
X84764887Y-121472418D01*
X84767197Y-121442077D01*
X84769378Y-121426528D01*
X84775500Y-121396741D01*
X84775500Y-121337758D01*
X84775858Y-121328343D01*
X84776051Y-121325801D01*
X84780337Y-121269523D01*
X84776493Y-121239347D01*
X84775500Y-121223682D01*
X84775500Y-113195364D01*
X84776964Y-113178895D01*
X84777387Y-113177418D01*
X84792837Y-112974523D01*
X84767130Y-112772672D01*
X84765096Y-112766721D01*
X84765095Y-112766717D01*
X84723533Y-112645128D01*
X84717510Y-112617626D01*
X84715436Y-112597315D01*
X84662549Y-112437713D01*
X84574281Y-112294609D01*
X84455391Y-112175719D01*
X84449241Y-112171925D01*
X84449239Y-112171924D01*
X84318435Y-112091243D01*
X84318434Y-112091242D01*
X84312287Y-112087451D01*
X84213635Y-112054761D01*
X84159113Y-112036694D01*
X84159112Y-112036693D01*
X84152685Y-112034564D01*
X84145952Y-112033876D01*
X84145947Y-112033875D01*
X84057305Y-112024819D01*
X84057288Y-112024818D01*
X84054174Y-112024500D01*
X84051025Y-112024500D01*
X84023999Y-112024500D01*
X83995968Y-112021290D01*
X83920678Y-112003818D01*
X83920676Y-112003817D01*
X83914554Y-112002397D01*
X83908276Y-112002237D01*
X83908269Y-112002237D01*
X83717424Y-111997402D01*
X83717421Y-111997402D01*
X83711137Y-111997243D01*
X83704951Y-111998351D01*
X83704947Y-111998352D01*
X83587809Y-112019347D01*
X83576974Y-112021290D01*
X83569916Y-112022555D01*
X83548039Y-112024500D01*
X83520826Y-112024500D01*
X83517712Y-112024818D01*
X83517694Y-112024819D01*
X83429052Y-112033875D01*
X83429045Y-112033876D01*
X83422315Y-112034564D01*
X83415889Y-112036693D01*
X83415886Y-112036694D01*
X83376004Y-112049910D01*
X83318137Y-112054761D01*
X83264407Y-112032734D01*
X83226597Y-111988660D01*
X83213000Y-111932204D01*
X83213000Y-110977351D01*
X83230067Y-110914572D01*
X83276568Y-110869074D01*
X83339705Y-110853381D01*
X83402097Y-110871812D01*
X83460372Y-110907756D01*
X83473374Y-110913819D01*
X83620969Y-110962727D01*
X83634125Y-110965543D01*
X83723555Y-110974680D01*
X83729832Y-110975000D01*
X83733674Y-110975000D01*
X83746549Y-110971549D01*
X83750000Y-110958674D01*
X83750000Y-110958673D01*
X84250000Y-110958673D01*
X84253450Y-110971548D01*
X84266326Y-110974999D01*
X84270165Y-110974999D01*
X84276447Y-110974678D01*
X84365867Y-110965544D01*
X84379036Y-110962725D01*
X84526625Y-110913819D01*
X84539633Y-110907753D01*
X84671580Y-110826367D01*
X84682842Y-110817462D01*
X84792462Y-110707842D01*
X84801367Y-110696580D01*
X84882753Y-110564633D01*
X84888819Y-110551625D01*
X84937727Y-110404030D01*
X84940543Y-110390874D01*
X84949680Y-110301444D01*
X84950000Y-110295168D01*
X84950000Y-110266326D01*
X84946549Y-110253450D01*
X84933674Y-110250000D01*
X84266326Y-110250000D01*
X84253450Y-110253450D01*
X84250000Y-110266326D01*
X84250000Y-110958673D01*
X83750000Y-110958673D01*
X83750000Y-109733674D01*
X84250000Y-109733674D01*
X84253450Y-109746549D01*
X84266326Y-109750000D01*
X84933673Y-109750000D01*
X84946548Y-109746549D01*
X84949999Y-109733674D01*
X84949999Y-109704835D01*
X84949678Y-109698552D01*
X84940544Y-109609132D01*
X84937725Y-109595963D01*
X84888819Y-109448374D01*
X84882753Y-109435366D01*
X84801367Y-109303419D01*
X84792462Y-109292157D01*
X84682842Y-109182537D01*
X84671580Y-109173632D01*
X84539633Y-109092246D01*
X84526625Y-109086180D01*
X84379030Y-109037272D01*
X84365874Y-109034456D01*
X84276444Y-109025319D01*
X84270168Y-109025000D01*
X84266326Y-109025000D01*
X84253450Y-109028450D01*
X84250000Y-109041326D01*
X84250000Y-109733674D01*
X83750000Y-109733674D01*
X83750000Y-109041327D01*
X83746549Y-109028451D01*
X83733674Y-109025001D01*
X83729835Y-109025001D01*
X83723552Y-109025321D01*
X83634132Y-109034455D01*
X83620966Y-109037274D01*
X83613504Y-109039747D01*
X83555637Y-109044598D01*
X83501907Y-109022571D01*
X83464097Y-108978496D01*
X83450500Y-108922041D01*
X83450500Y-106784440D01*
X83461473Y-106733440D01*
X83492451Y-106691467D01*
X83537951Y-106665949D01*
X83542383Y-106664581D01*
X83641323Y-106634063D01*
X83877704Y-106520228D01*
X84094479Y-106372433D01*
X84286805Y-106193981D01*
X84450386Y-105988857D01*
X84581568Y-105761643D01*
X84677420Y-105517416D01*
X84735802Y-105261630D01*
X84750500Y-105065494D01*
X84750500Y-100138096D01*
X84767107Y-100076105D01*
X84812481Y-100030720D01*
X84874467Y-100014096D01*
X99650589Y-100010175D01*
X137865573Y-100000035D01*
X137930440Y-100018336D01*
G37*
%TD.AperFunction*%
%TD*%
M02*
