%TF.GenerationSoftware,KiCad,Pcbnew,(7.0.0)*%
%TF.CreationDate,2026-09-24T03:06:42+02:00*%
%TF.ProjectId,Coplanar IFA,436f706c-616e-4617-9220-4946412e6b69,rev?*%
%TF.SameCoordinates,Original*%
%TF.FileFunction,Copper,L1,Top*%
%TF.FilePolarity,Positive*%
%FSLAX46Y46*%
G04 Gerber Fmt 4.6, Leading zero omitted, Abs format (unit mm)*
G04 Created by KiCad (PCBNEW (7.0.0)) date 2026-09-24 03:06:42*
%MOMM*%
%LPD*%
G01*
G04 APERTURE LIST*
G04 Aperture macros list*
%AMRoundRect*
0 Rectangle with rounded corners*
0 $1 Rounding radius*
0 $2 $3 $4 $5 $6 $7 $8 $9 X,Y pos of 4 corners*
0 Add a 4 corners polygon primitive as box body*
4,1,4,$2,$3,$4,$5,$6,$7,$8,$9,$2,$3,0*
0 Add four circle primitives for the rounded corners*
1,1,$1+$1,$2,$3*
1,1,$1+$1,$4,$5*
1,1,$1+$1,$6,$7*
1,1,$1+$1,$8,$9*
0 Add four rect primitives between the rounded corners*
20,1,$1+$1,$2,$3,$4,$5,0*
20,1,$1+$1,$4,$5,$6,$7,0*
20,1,$1+$1,$6,$7,$8,$9,0*
20,1,$1+$1,$8,$9,$2,$3,0*%
G04 Aperture macros list end*
%TA.AperFunction,SMDPad,CuDef*%
%ADD10RoundRect,0.225000X0.250000X-0.225000X0.250000X0.225000X-0.250000X0.225000X-0.250000X-0.225000X0*%
%TD*%
%TA.AperFunction,SMDPad,CuDef*%
%ADD11C,0.500000*%
%TD*%
%TA.AperFunction,SMDPad,CuDef*%
%ADD12RoundRect,0.225000X-0.250000X0.225000X-0.250000X-0.225000X0.250000X-0.225000X0.250000X0.225000X0*%
%TD*%
%TA.AperFunction,ComponentPad*%
%ADD13C,0.970000*%
%TD*%
%TA.AperFunction,SMDPad,CuDef*%
%ADD14R,2.420000X5.080000*%
%TD*%
%TA.AperFunction,SMDPad,CuDef*%
%ADD15R,0.460000X0.950000*%
%TD*%
%TA.AperFunction,SMDPad,CuDef*%
%ADD16R,2.290000X5.080000*%
%TD*%
%TA.AperFunction,SMDPad,CuDef*%
%ADD17RoundRect,0.218750X-0.256250X0.218750X-0.256250X-0.218750X0.256250X-0.218750X0.256250X0.218750X0*%
%TD*%
%TA.AperFunction,ViaPad*%
%ADD18C,0.800000*%
%TD*%
%TA.AperFunction,Conductor*%
%ADD19C,1.000000*%
%TD*%
%TA.AperFunction,Conductor*%
%ADD20C,2.000000*%
%TD*%
%TA.AperFunction,Conductor*%
%ADD21C,2.500000*%
%TD*%
G04 APERTURE END LIST*
%TO.C,NT1*%
G36*
X68000000Y-103250000D02*
G01*
X67000000Y-103250000D01*
X67000000Y-102750000D01*
X68000000Y-102750000D01*
X68000000Y-103250000D01*
G37*
%TD*%
D10*
%TO.P,C1,1*%
%TO.N,/ANT*%
X88225000Y-107775000D03*
%TO.P,C1,2*%
%TO.N,GND*%
X88225000Y-106225000D03*
%TD*%
D11*
%TO.P,NT1,1,1*%
%TO.N,/ANT*%
X67000000Y-103000000D03*
%TO.P,NT1,2,2*%
%TO.N,GND*%
X68000000Y-103000000D03*
%TD*%
D12*
%TO.P,C2,2*%
%TO.N,GND*%
X97000000Y-107550000D03*
%TO.P,C2,1*%
%TO.N,Net-(J1-In)*%
X97000000Y-106000000D03*
%TD*%
D13*
%TO.P,J1,2,Ext*%
%TO.N,GND*%
X87380000Y-125510000D03*
D14*
X78619999Y-122069999D03*
D15*
X78619999Y-125059999D03*
D14*
X87379999Y-122069999D03*
D13*
X78620000Y-125510000D03*
D15*
X87379999Y-125059999D03*
D16*
%TO.P,J1,1,In*%
%TO.N,Net-(J1-In)*%
X82999999Y-122069999D03*
%TD*%
D17*
%TO.P,L1,1,1*%
%TO.N,/ANT*%
X92212500Y-106212500D03*
%TO.P,L1,2,2*%
%TO.N,Net-(J1-In)*%
X92212500Y-107787500D03*
%TD*%
D18*
%TO.N,GND*%
X74000000Y-103000000D03*
X79000000Y-103000000D03*
X130000000Y-103000000D03*
X125000000Y-103000000D03*
X120000000Y-103000000D03*
X115000000Y-103000000D03*
X110000000Y-103000000D03*
X105000000Y-103000000D03*
X100000000Y-103000000D03*
X95000000Y-103000000D03*
X90000000Y-103000000D03*
%TD*%
D19*
%TO.N,Net-(J1-In)*%
X92212500Y-110787500D02*
X92212500Y-107787500D01*
X91000000Y-112000000D02*
X92212500Y-110787500D01*
X87000000Y-112000000D02*
X91000000Y-112000000D01*
X83000000Y-116000000D02*
X87000000Y-112000000D01*
X83000000Y-122070000D02*
X83000000Y-116000000D01*
%TO.N,/ANT*%
X85775000Y-107775000D02*
X88225000Y-107775000D01*
X83000000Y-105000000D02*
X85775000Y-107775000D01*
%TO.N,Net-(J1-In)*%
X96000000Y-106000000D02*
X97000000Y-106000000D01*
X92212500Y-107787500D02*
X94212500Y-107787500D01*
X94212500Y-107787500D02*
X96000000Y-106000000D01*
%TO.N,/ANT*%
X88458148Y-107775000D02*
X88225000Y-107775000D01*
X90020648Y-106212500D02*
X88458148Y-107775000D01*
X92212500Y-106212500D02*
X90020648Y-106212500D01*
X67000000Y-103000000D02*
X66000000Y-102000000D01*
X66000000Y-102000000D02*
X66000000Y-101000000D01*
D20*
X71000000Y-81000000D02*
X127000000Y-81000000D01*
X80000000Y-73000000D02*
X115000000Y-73000000D01*
X115000000Y-68000000D02*
X104000000Y-68000000D01*
X127000000Y-77000000D02*
X80000000Y-77000000D01*
X115000000Y-73000000D02*
X115000000Y-68000000D01*
X80000000Y-77000000D02*
X80000000Y-73000000D01*
X127000000Y-81000000D02*
X127000000Y-77000000D01*
X71000000Y-84000000D02*
X71000000Y-81000000D01*
X133000000Y-84000000D02*
X71000000Y-84000000D01*
X133000000Y-88000000D02*
X133000000Y-84000000D01*
X69000000Y-88000000D02*
X133000000Y-88000000D01*
X69000000Y-92000000D02*
X69000000Y-88000000D01*
X133000000Y-92000000D02*
X69000000Y-92000000D01*
X133000000Y-96000000D02*
X133000000Y-92000000D01*
X66000000Y-96000000D02*
X133000000Y-96000000D01*
X66000000Y-101000000D02*
X66000000Y-96000000D01*
D21*
X83000000Y-105000000D02*
X83000000Y-97000000D01*
%TD*%
%TA.AperFunction,Conductor*%
%TO.N,GND*%
G36*
X137930440Y-100018336D02*
G01*
X137976153Y-100067867D01*
X137989204Y-100133993D01*
X137524437Y-105902713D01*
X137521951Y-105919351D01*
X136542762Y-110378429D01*
X136537341Y-110396455D01*
X135616577Y-112783749D01*
X135615833Y-112785633D01*
X134416166Y-115750847D01*
X134411077Y-115761846D01*
X132896609Y-118655157D01*
X132890914Y-118664925D01*
X130788099Y-121920897D01*
X130779784Y-121932293D01*
X128810658Y-124331460D01*
X127372808Y-126106305D01*
X127339673Y-126134925D01*
X126775485Y-126469258D01*
X126712390Y-126486582D01*
X117631377Y-126495366D01*
X117631059Y-126495366D01*
X108179030Y-126480243D01*
X87998560Y-126485007D01*
X87939648Y-126470135D01*
X87894874Y-126429060D01*
X87874988Y-126371646D01*
X87874163Y-126362072D01*
X87867169Y-126350722D01*
X87391542Y-125875095D01*
X87380000Y-125868431D01*
X87368456Y-125875096D01*
X86892829Y-126350722D01*
X86885834Y-126362073D01*
X86884985Y-126371941D01*
X86865109Y-126429337D01*
X86820358Y-126470408D01*
X86761471Y-126485299D01*
X79238738Y-126487075D01*
X79179826Y-126472202D01*
X79135052Y-126431128D01*
X79115166Y-126373714D01*
X79114163Y-126362072D01*
X79107169Y-126350722D01*
X78631542Y-125875095D01*
X78620000Y-125868431D01*
X78608456Y-125875096D01*
X78132829Y-126350722D01*
X78125834Y-126362073D01*
X78124807Y-126374008D01*
X78104931Y-126431405D01*
X78060180Y-126472476D01*
X78001293Y-126487367D01*
X73035953Y-126488540D01*
X72986069Y-126478076D01*
X72944609Y-126448430D01*
X71296614Y-124654518D01*
X76910000Y-124654518D01*
X76910353Y-124661114D01*
X76915573Y-124709667D01*
X76919111Y-124724641D01*
X76963547Y-124843777D01*
X76971962Y-124859189D01*
X77047498Y-124960092D01*
X77059907Y-124972501D01*
X77160810Y-125048037D01*
X77176222Y-125056452D01*
X77295358Y-125100888D01*
X77310332Y-125104426D01*
X77358885Y-125109646D01*
X77365482Y-125110000D01*
X77544821Y-125110000D01*
X77600573Y-125123240D01*
X77644419Y-125160133D01*
X77666995Y-125212800D01*
X77663482Y-125269995D01*
X77651020Y-125311075D01*
X77648654Y-125322970D01*
X77630831Y-125503939D01*
X77630831Y-125516061D01*
X77648654Y-125697029D01*
X77651020Y-125708924D01*
X77703806Y-125882935D01*
X77708447Y-125894141D01*
X77762161Y-125994631D01*
X77769650Y-126003101D01*
X77779276Y-125997169D01*
X78476069Y-125300377D01*
X78481537Y-125291454D01*
X78758462Y-125291454D01*
X78763930Y-125300377D01*
X79460722Y-125997169D01*
X79470348Y-126003100D01*
X79477838Y-125994630D01*
X79531552Y-125894141D01*
X79536193Y-125882935D01*
X79588979Y-125708924D01*
X79591345Y-125697029D01*
X79609169Y-125516061D01*
X79609169Y-125503939D01*
X79591345Y-125322970D01*
X79588979Y-125311075D01*
X79576518Y-125269995D01*
X79573005Y-125212800D01*
X79595581Y-125160133D01*
X79639427Y-125123240D01*
X79695179Y-125110000D01*
X79874518Y-125110000D01*
X79881114Y-125109646D01*
X79929667Y-125104426D01*
X79944641Y-125100888D01*
X80063777Y-125056452D01*
X80079189Y-125048037D01*
X80180092Y-124972501D01*
X80192501Y-124960092D01*
X80268037Y-124859189D01*
X80276452Y-124843777D01*
X80320888Y-124724641D01*
X80324426Y-124709667D01*
X80329646Y-124661114D01*
X80330000Y-124654518D01*
X80330000Y-122336326D01*
X80326549Y-122323450D01*
X80313674Y-122320000D01*
X78886326Y-122320000D01*
X78873450Y-122323450D01*
X78870000Y-122336326D01*
X78870000Y-125084613D01*
X78860561Y-125132066D01*
X78858255Y-125135516D01*
X78850000Y-125166326D01*
X78850000Y-125172615D01*
X78837920Y-125225999D01*
X78804035Y-125268982D01*
X78758462Y-125291454D01*
X78481537Y-125291454D01*
X78435965Y-125268982D01*
X78402080Y-125225999D01*
X78390000Y-125172615D01*
X78390000Y-125166326D01*
X78381744Y-125135516D01*
X78379439Y-125132066D01*
X78370000Y-125084613D01*
X78370000Y-122336326D01*
X78366549Y-122323450D01*
X78353674Y-122320000D01*
X76926326Y-122320000D01*
X76913450Y-122323450D01*
X76910000Y-122336326D01*
X76910000Y-124654518D01*
X71296614Y-124654518D01*
X70084665Y-123335261D01*
X70072193Y-123319225D01*
X69421224Y-122323450D01*
X69081430Y-121803674D01*
X76910000Y-121803674D01*
X76913450Y-121816549D01*
X76926326Y-121820000D01*
X78353674Y-121820000D01*
X78366549Y-121816549D01*
X78370000Y-121803674D01*
X78870000Y-121803674D01*
X78873450Y-121816549D01*
X78886326Y-121820000D01*
X80313674Y-121820000D01*
X80326549Y-121816549D01*
X80330000Y-121803674D01*
X80330000Y-119485482D01*
X80329646Y-119478885D01*
X80324426Y-119430332D01*
X80320888Y-119415358D01*
X80276452Y-119296222D01*
X80268037Y-119280810D01*
X80192501Y-119179907D01*
X80180092Y-119167498D01*
X80079189Y-119091962D01*
X80063777Y-119083547D01*
X79944641Y-119039111D01*
X79929667Y-119035573D01*
X79881114Y-119030353D01*
X79874518Y-119030000D01*
X78886326Y-119030000D01*
X78873450Y-119033450D01*
X78870000Y-119046326D01*
X78870000Y-121803674D01*
X78370000Y-121803674D01*
X78370000Y-119046326D01*
X78366549Y-119033450D01*
X78353674Y-119030000D01*
X77365482Y-119030000D01*
X77358885Y-119030353D01*
X77310332Y-119035573D01*
X77295358Y-119039111D01*
X77176222Y-119083547D01*
X77160810Y-119091962D01*
X77059907Y-119167498D01*
X77047498Y-119179907D01*
X76971962Y-119280810D01*
X76963547Y-119296222D01*
X76919111Y-119415358D01*
X76915573Y-119430332D01*
X76910353Y-119478885D01*
X76910000Y-119485482D01*
X76910000Y-121803674D01*
X69081430Y-121803674D01*
X66770467Y-118268639D01*
X66762053Y-118253570D01*
X64260738Y-112934511D01*
X64252277Y-112910269D01*
X62306701Y-104675503D01*
X62303645Y-104655099D01*
X62259952Y-103988158D01*
X62008652Y-100152234D01*
X62022394Y-100086880D01*
X62068041Y-100038131D01*
X62132350Y-100020129D01*
X63835028Y-100019678D01*
X64375467Y-100019535D01*
X64437481Y-100036137D01*
X64482882Y-100081526D01*
X64499500Y-100143535D01*
X64499500Y-101062067D01*
X64499711Y-101064617D01*
X64499712Y-101064633D01*
X64514467Y-101242701D01*
X64514468Y-101242709D01*
X64514892Y-101247821D01*
X64516149Y-101252788D01*
X64516151Y-101252795D01*
X64574678Y-101483910D01*
X64575937Y-101488881D01*
X64577997Y-101493577D01*
X64673766Y-101711910D01*
X64673769Y-101711916D01*
X64675827Y-101716607D01*
X64678627Y-101720893D01*
X64678631Y-101720900D01*
X64767491Y-101856910D01*
X64811836Y-101924785D01*
X64815310Y-101928559D01*
X64815311Y-101928560D01*
X64980256Y-102107738D01*
X64979227Y-102108684D01*
X65000088Y-102136370D01*
X65012576Y-102179344D01*
X65014287Y-102196171D01*
X65014290Y-102196186D01*
X65014926Y-102202438D01*
X65016807Y-102208435D01*
X65016810Y-102208447D01*
X65024032Y-102231466D01*
X65027772Y-102246702D01*
X65032031Y-102270464D01*
X65032035Y-102270478D01*
X65033142Y-102276653D01*
X65035471Y-102282483D01*
X65055020Y-102331425D01*
X65058179Y-102340298D01*
X65075841Y-102396588D01*
X65078891Y-102402083D01*
X65090603Y-102423184D01*
X65097337Y-102437363D01*
X65106290Y-102459778D01*
X65106292Y-102459783D01*
X65108623Y-102465617D01*
X65112082Y-102470866D01*
X65112085Y-102470871D01*
X65141080Y-102514867D01*
X65145961Y-102522923D01*
X65171536Y-102568999D01*
X65171538Y-102569002D01*
X65174591Y-102574502D01*
X65178689Y-102579275D01*
X65194404Y-102597581D01*
X65203855Y-102610116D01*
X65217133Y-102630263D01*
X65217138Y-102630269D01*
X65220598Y-102635519D01*
X65225044Y-102639965D01*
X65225045Y-102639966D01*
X65262300Y-102677221D01*
X65268705Y-102684131D01*
X65307134Y-102728895D01*
X65331198Y-102747522D01*
X65342967Y-102757888D01*
X66328420Y-103743341D01*
X66446593Y-103839698D01*
X66626951Y-103933909D01*
X66822582Y-103989887D01*
X67025477Y-104005337D01*
X67227328Y-103979630D01*
X67419873Y-103913816D01*
X67595227Y-103810591D01*
X67666384Y-103746301D01*
X67724989Y-103716761D01*
X67790466Y-103721271D01*
X67825474Y-103733521D01*
X67838977Y-103736603D01*
X67993077Y-103753966D01*
X68006923Y-103753966D01*
X68161022Y-103736603D01*
X68174524Y-103733521D01*
X68311859Y-103685464D01*
X68321440Y-103679063D01*
X68315586Y-103669139D01*
X68004060Y-103357613D01*
X67972525Y-103304043D01*
X67970951Y-103241905D01*
X67997603Y-103127054D01*
X68000822Y-103000000D01*
X68358431Y-103000000D01*
X68365095Y-103011542D01*
X68669139Y-103315586D01*
X68679063Y-103321440D01*
X68685464Y-103311859D01*
X68733521Y-103174524D01*
X68736603Y-103161022D01*
X68753966Y-103006923D01*
X68753966Y-102993077D01*
X68736603Y-102838977D01*
X68733521Y-102825475D01*
X68685464Y-102688139D01*
X68679063Y-102678558D01*
X68669139Y-102684412D01*
X68365096Y-102988456D01*
X68358431Y-103000000D01*
X68000822Y-103000000D01*
X68002757Y-102923637D01*
X67971634Y-102749991D01*
X67975376Y-102690998D01*
X68006008Y-102640438D01*
X68315585Y-102330860D01*
X68321440Y-102320934D01*
X68311863Y-102314535D01*
X68174517Y-102266476D01*
X68161025Y-102263397D01*
X68006923Y-102246034D01*
X67993077Y-102246034D01*
X67838976Y-102263396D01*
X67825478Y-102266477D01*
X67792286Y-102278092D01*
X67723739Y-102281941D01*
X67663651Y-102248731D01*
X67319249Y-101904329D01*
X67289648Y-101856910D01*
X67283883Y-101801308D01*
X67303121Y-101748828D01*
X67324173Y-101716607D01*
X67424063Y-101488881D01*
X67485108Y-101247821D01*
X67500500Y-101062067D01*
X67500500Y-100142673D01*
X67517107Y-100080682D01*
X67562481Y-100035297D01*
X67624467Y-100018673D01*
X81125467Y-100015091D01*
X81187481Y-100031693D01*
X81232882Y-100077082D01*
X81249500Y-100139091D01*
X81249500Y-105065494D01*
X81249672Y-105067797D01*
X81249673Y-105067808D01*
X81263453Y-105251694D01*
X81264198Y-105261630D01*
X81265228Y-105266143D01*
X81265229Y-105266149D01*
X81314313Y-105481198D01*
X81322580Y-105517416D01*
X81324275Y-105521734D01*
X81324276Y-105521738D01*
X81416734Y-105757318D01*
X81416737Y-105757324D01*
X81418432Y-105761643D01*
X81420750Y-105765658D01*
X81420753Y-105765664D01*
X81467895Y-105847315D01*
X81549614Y-105988857D01*
X81713195Y-106193981D01*
X81905521Y-106372433D01*
X82122296Y-106520228D01*
X82358677Y-106634063D01*
X82363105Y-106635428D01*
X82363108Y-106635430D01*
X82466537Y-106667333D01*
X82609385Y-106711396D01*
X82868818Y-106750500D01*
X83126547Y-106750500D01*
X83131182Y-106750500D01*
X83246907Y-106733056D01*
X83304146Y-106737884D01*
X83353069Y-106767990D01*
X85057450Y-108472371D01*
X85059643Y-108474620D01*
X85115603Y-108533490D01*
X85115605Y-108533492D01*
X85119941Y-108538053D01*
X85125105Y-108541647D01*
X85125107Y-108541649D01*
X85168348Y-108571746D01*
X85175869Y-108577417D01*
X85216715Y-108610722D01*
X85216724Y-108610727D01*
X85221593Y-108614698D01*
X85248556Y-108628782D01*
X85261980Y-108636915D01*
X85286951Y-108654295D01*
X85341163Y-108677559D01*
X85349675Y-108681602D01*
X85386886Y-108701040D01*
X85401951Y-108708909D01*
X85431199Y-108717277D01*
X85445975Y-108722538D01*
X85473942Y-108734540D01*
X85531718Y-108746413D01*
X85540866Y-108748658D01*
X85597582Y-108764887D01*
X85627916Y-108767196D01*
X85643463Y-108769377D01*
X85667095Y-108774234D01*
X85667102Y-108774234D01*
X85673259Y-108775500D01*
X85732242Y-108775500D01*
X85741657Y-108775858D01*
X85800477Y-108780337D01*
X85830652Y-108776493D01*
X85846318Y-108775500D01*
X88123259Y-108775500D01*
X88275742Y-108775500D01*
X88443870Y-108775500D01*
X88447010Y-108775539D01*
X88534511Y-108777757D01*
X88592606Y-108767344D01*
X88601887Y-108766042D01*
X88660586Y-108760074D01*
X88689612Y-108750966D01*
X88704861Y-108747224D01*
X88734801Y-108741858D01*
X88789571Y-108719980D01*
X88798451Y-108716818D01*
X88808899Y-108713540D01*
X88854736Y-108699159D01*
X88881342Y-108684390D01*
X88895510Y-108677662D01*
X88923765Y-108666377D01*
X88973039Y-108633902D01*
X88981058Y-108629043D01*
X89032650Y-108600409D01*
X89052186Y-108583637D01*
X89055731Y-108580594D01*
X89068273Y-108571137D01*
X89069446Y-108570364D01*
X89093667Y-108554402D01*
X89135386Y-108512681D01*
X89142270Y-108506301D01*
X89187043Y-108467866D01*
X89205668Y-108443802D01*
X89216027Y-108432040D01*
X90398749Y-107249319D01*
X90438978Y-107222439D01*
X90486431Y-107213000D01*
X91144704Y-107213000D01*
X91201160Y-107226597D01*
X91245234Y-107264407D01*
X91267261Y-107318137D01*
X91262410Y-107376003D01*
X91247064Y-107422315D01*
X91246376Y-107429045D01*
X91246375Y-107429052D01*
X91237319Y-107517694D01*
X91237318Y-107517712D01*
X91237000Y-107520826D01*
X91237000Y-107523975D01*
X91237000Y-107547726D01*
X91233042Y-107578807D01*
X91220012Y-107629130D01*
X91220011Y-107629134D01*
X91218437Y-107635215D01*
X91218118Y-107641483D01*
X91218116Y-107641502D01*
X91217619Y-107651309D01*
X91215242Y-107669975D01*
X91213265Y-107679596D01*
X91213263Y-107679607D01*
X91212000Y-107685759D01*
X91212000Y-107692044D01*
X91212000Y-107758999D01*
X91211841Y-107765279D01*
X91208449Y-107832154D01*
X91208449Y-107832159D01*
X91208131Y-107838436D01*
X91209082Y-107844648D01*
X91209083Y-107844654D01*
X91210570Y-107854357D01*
X91212000Y-107873134D01*
X91212000Y-110321717D01*
X91202561Y-110369170D01*
X91175681Y-110409398D01*
X90621899Y-110963181D01*
X90581671Y-110990061D01*
X90534218Y-110999500D01*
X87014238Y-110999500D01*
X87011097Y-110999460D01*
X86929925Y-110997403D01*
X86929921Y-110997403D01*
X86923637Y-110997244D01*
X86917448Y-110998353D01*
X86917449Y-110998353D01*
X86865588Y-111007647D01*
X86856264Y-111008954D01*
X86803827Y-111014287D01*
X86803809Y-111014290D01*
X86797562Y-111014926D01*
X86791570Y-111016805D01*
X86791560Y-111016808D01*
X86768526Y-111024035D01*
X86753289Y-111027774D01*
X86729538Y-111032031D01*
X86729525Y-111032034D01*
X86723347Y-111033142D01*
X86717520Y-111035469D01*
X86717504Y-111035474D01*
X86668567Y-111055021D01*
X86659697Y-111058179D01*
X86609411Y-111073957D01*
X86609396Y-111073963D01*
X86603412Y-111075841D01*
X86597922Y-111078887D01*
X86597915Y-111078891D01*
X86576809Y-111090605D01*
X86562640Y-111097334D01*
X86540223Y-111106289D01*
X86540213Y-111106293D01*
X86534383Y-111108623D01*
X86529140Y-111112078D01*
X86529131Y-111112083D01*
X86485123Y-111141086D01*
X86477073Y-111145963D01*
X86425498Y-111174591D01*
X86420729Y-111178684D01*
X86420726Y-111178687D01*
X86402414Y-111194407D01*
X86389887Y-111203852D01*
X86369731Y-111217136D01*
X86369719Y-111217145D01*
X86364481Y-111220598D01*
X86360039Y-111225039D01*
X86360035Y-111225043D01*
X86322774Y-111262303D01*
X86315868Y-111268704D01*
X86275873Y-111303040D01*
X86275869Y-111303043D01*
X86271105Y-111307134D01*
X86267260Y-111312100D01*
X86267260Y-111312101D01*
X86252480Y-111331194D01*
X86242108Y-111342969D01*
X82302646Y-115282432D01*
X82300398Y-115284624D01*
X82236947Y-115344941D01*
X82233359Y-115350095D01*
X82233352Y-115350104D01*
X82203244Y-115393361D01*
X82197574Y-115400881D01*
X82164274Y-115441721D01*
X82164271Y-115441724D01*
X82160302Y-115446593D01*
X82157396Y-115452155D01*
X82157388Y-115452168D01*
X82146210Y-115473566D01*
X82138082Y-115486982D01*
X82124300Y-115506784D01*
X82124295Y-115506792D01*
X82120705Y-115511951D01*
X82118228Y-115517721D01*
X82118225Y-115517728D01*
X82097439Y-115566165D01*
X82093399Y-115574671D01*
X82066091Y-115626951D01*
X82064363Y-115632989D01*
X82064360Y-115632997D01*
X82057720Y-115656201D01*
X82052459Y-115670978D01*
X82042942Y-115693157D01*
X82040460Y-115698942D01*
X82039194Y-115705097D01*
X82039192Y-115705107D01*
X82028587Y-115756712D01*
X82026342Y-115765859D01*
X82011842Y-115816534D01*
X82011839Y-115816547D01*
X82010113Y-115822582D01*
X82009636Y-115828842D01*
X82009635Y-115828849D01*
X82007801Y-115852929D01*
X82005622Y-115868463D01*
X82000766Y-115892097D01*
X81999500Y-115898259D01*
X81999500Y-115904550D01*
X81999500Y-115957241D01*
X81999142Y-115966656D01*
X81995140Y-116019205D01*
X81995140Y-116019210D01*
X81994663Y-116025476D01*
X81995456Y-116031709D01*
X81995457Y-116031715D01*
X81998506Y-116055651D01*
X81999500Y-116071317D01*
X81999500Y-118905501D01*
X81982887Y-118967501D01*
X81937500Y-119012888D01*
X81875500Y-119029501D01*
X81807128Y-119029501D01*
X81803850Y-119029853D01*
X81803838Y-119029854D01*
X81755231Y-119035079D01*
X81755225Y-119035080D01*
X81747517Y-119035909D01*
X81740252Y-119038618D01*
X81740246Y-119038620D01*
X81620980Y-119083104D01*
X81620978Y-119083104D01*
X81612669Y-119086204D01*
X81605572Y-119091516D01*
X81605568Y-119091519D01*
X81504550Y-119167141D01*
X81504546Y-119167144D01*
X81497454Y-119172454D01*
X81492144Y-119179546D01*
X81492141Y-119179550D01*
X81416519Y-119280568D01*
X81416516Y-119280572D01*
X81411204Y-119287669D01*
X81408104Y-119295978D01*
X81408104Y-119295980D01*
X81363620Y-119415247D01*
X81363619Y-119415250D01*
X81360909Y-119422517D01*
X81360079Y-119430227D01*
X81360079Y-119430232D01*
X81354855Y-119478819D01*
X81354854Y-119478831D01*
X81354500Y-119482127D01*
X81354500Y-119485448D01*
X81354500Y-119485449D01*
X81354500Y-124654560D01*
X81354500Y-124654578D01*
X81354501Y-124657872D01*
X81354853Y-124661150D01*
X81354854Y-124661161D01*
X81360079Y-124709768D01*
X81360080Y-124709773D01*
X81360909Y-124717483D01*
X81363619Y-124724749D01*
X81363620Y-124724753D01*
X81375016Y-124755306D01*
X81411204Y-124852331D01*
X81497454Y-124967546D01*
X81612669Y-125053796D01*
X81747517Y-125104091D01*
X81807127Y-125110500D01*
X84192872Y-125110499D01*
X84252483Y-125104091D01*
X84387331Y-125053796D01*
X84502546Y-124967546D01*
X84588796Y-124852331D01*
X84639091Y-124717483D01*
X84645500Y-124657873D01*
X84645500Y-124654518D01*
X85670000Y-124654518D01*
X85670353Y-124661114D01*
X85675573Y-124709667D01*
X85679111Y-124724641D01*
X85723547Y-124843777D01*
X85731962Y-124859189D01*
X85807498Y-124960092D01*
X85819907Y-124972501D01*
X85920810Y-125048037D01*
X85936222Y-125056452D01*
X86055358Y-125100888D01*
X86070332Y-125104426D01*
X86118885Y-125109646D01*
X86125482Y-125110000D01*
X86304821Y-125110000D01*
X86360573Y-125123240D01*
X86404419Y-125160133D01*
X86426995Y-125212800D01*
X86423482Y-125269995D01*
X86411020Y-125311075D01*
X86408654Y-125322970D01*
X86390831Y-125503939D01*
X86390831Y-125516061D01*
X86408654Y-125697029D01*
X86411020Y-125708924D01*
X86463806Y-125882935D01*
X86468447Y-125894141D01*
X86522161Y-125994631D01*
X86529650Y-126003101D01*
X86539276Y-125997169D01*
X87236069Y-125300377D01*
X87241537Y-125291454D01*
X87518462Y-125291454D01*
X87523930Y-125300377D01*
X88220722Y-125997169D01*
X88230348Y-126003100D01*
X88237838Y-125994630D01*
X88291552Y-125894141D01*
X88296193Y-125882935D01*
X88348979Y-125708924D01*
X88351345Y-125697029D01*
X88369169Y-125516061D01*
X88369169Y-125503939D01*
X88351345Y-125322970D01*
X88348979Y-125311075D01*
X88336518Y-125269995D01*
X88333005Y-125212800D01*
X88355581Y-125160133D01*
X88399427Y-125123240D01*
X88455179Y-125110000D01*
X88634518Y-125110000D01*
X88641114Y-125109646D01*
X88689667Y-125104426D01*
X88704641Y-125100888D01*
X88823777Y-125056452D01*
X88839189Y-125048037D01*
X88940092Y-124972501D01*
X88952501Y-124960092D01*
X89028037Y-124859189D01*
X89036452Y-124843777D01*
X89080888Y-124724641D01*
X89084426Y-124709667D01*
X89089646Y-124661114D01*
X89090000Y-124654518D01*
X89090000Y-122336326D01*
X89086549Y-122323450D01*
X89073674Y-122320000D01*
X87646326Y-122320000D01*
X87633450Y-122323450D01*
X87630000Y-122336326D01*
X87630000Y-125084613D01*
X87620561Y-125132066D01*
X87618255Y-125135516D01*
X87610000Y-125166326D01*
X87610000Y-125172615D01*
X87597920Y-125225999D01*
X87564035Y-125268982D01*
X87518462Y-125291454D01*
X87241537Y-125291454D01*
X87195965Y-125268982D01*
X87162080Y-125225999D01*
X87150000Y-125172615D01*
X87150000Y-125166326D01*
X87141744Y-125135516D01*
X87139439Y-125132066D01*
X87130000Y-125084613D01*
X87130000Y-122336326D01*
X87126549Y-122323450D01*
X87113674Y-122320000D01*
X85686326Y-122320000D01*
X85673450Y-122323450D01*
X85670000Y-122336326D01*
X85670000Y-124654518D01*
X84645500Y-124654518D01*
X84645499Y-121803674D01*
X85670000Y-121803674D01*
X85673450Y-121816549D01*
X85686326Y-121820000D01*
X87113674Y-121820000D01*
X87126549Y-121816549D01*
X87130000Y-121803674D01*
X87630000Y-121803674D01*
X87633450Y-121816549D01*
X87646326Y-121820000D01*
X89073674Y-121820000D01*
X89086549Y-121816549D01*
X89090000Y-121803674D01*
X89090000Y-119485482D01*
X89089646Y-119478885D01*
X89084426Y-119430332D01*
X89080888Y-119415358D01*
X89036452Y-119296222D01*
X89028037Y-119280810D01*
X88952501Y-119179907D01*
X88940092Y-119167498D01*
X88839189Y-119091962D01*
X88823777Y-119083547D01*
X88704641Y-119039111D01*
X88689667Y-119035573D01*
X88641114Y-119030353D01*
X88634518Y-119030000D01*
X87646326Y-119030000D01*
X87633450Y-119033450D01*
X87630000Y-119046326D01*
X87630000Y-121803674D01*
X87130000Y-121803674D01*
X87130000Y-119046326D01*
X87126549Y-119033450D01*
X87113674Y-119030000D01*
X86125482Y-119030000D01*
X86118885Y-119030353D01*
X86070332Y-119035573D01*
X86055358Y-119039111D01*
X85936222Y-119083547D01*
X85920810Y-119091962D01*
X85819907Y-119167498D01*
X85807498Y-119179907D01*
X85731962Y-119280810D01*
X85723547Y-119296222D01*
X85679111Y-119415358D01*
X85675573Y-119430332D01*
X85670353Y-119478885D01*
X85670000Y-119485482D01*
X85670000Y-121803674D01*
X84645499Y-121803674D01*
X84645499Y-119482128D01*
X84639091Y-119422517D01*
X84588796Y-119287669D01*
X84502546Y-119172454D01*
X84387331Y-119086204D01*
X84316965Y-119059959D01*
X84259752Y-119038620D01*
X84259750Y-119038619D01*
X84252483Y-119035909D01*
X84244770Y-119035079D01*
X84244767Y-119035079D01*
X84196180Y-119029855D01*
X84196169Y-119029854D01*
X84192873Y-119029500D01*
X84189551Y-119029500D01*
X84124500Y-119029500D01*
X84062500Y-119012887D01*
X84017113Y-118967500D01*
X84000500Y-118905500D01*
X84000500Y-116465783D01*
X84009939Y-116418330D01*
X84036819Y-116378102D01*
X87378101Y-113036819D01*
X87418329Y-113009939D01*
X87465782Y-113000500D01*
X90985722Y-113000500D01*
X90988862Y-113000539D01*
X91076363Y-113002757D01*
X91134458Y-112992344D01*
X91143739Y-112991042D01*
X91202438Y-112985074D01*
X91231464Y-112975966D01*
X91246713Y-112972224D01*
X91276653Y-112966858D01*
X91331423Y-112944980D01*
X91340303Y-112941818D01*
X91396588Y-112924159D01*
X91423194Y-112909390D01*
X91437362Y-112902662D01*
X91465617Y-112891377D01*
X91514891Y-112858902D01*
X91522910Y-112854043D01*
X91574502Y-112825409D01*
X91585961Y-112815570D01*
X91597583Y-112805594D01*
X91610125Y-112796137D01*
X91635519Y-112779402D01*
X91677238Y-112737681D01*
X91684122Y-112731301D01*
X91728895Y-112692866D01*
X91747524Y-112668798D01*
X91757884Y-112657035D01*
X92909890Y-111505028D01*
X92912060Y-111502912D01*
X92975553Y-111442559D01*
X93009252Y-111394141D01*
X93014928Y-111386613D01*
X93052198Y-111340907D01*
X93055109Y-111335334D01*
X93066282Y-111313944D01*
X93074419Y-111300513D01*
X93088204Y-111280708D01*
X93088203Y-111280708D01*
X93091795Y-111275549D01*
X93115068Y-111221315D01*
X93119098Y-111212831D01*
X93123789Y-111203852D01*
X93146409Y-111160549D01*
X93154778Y-111131297D01*
X93160038Y-111116523D01*
X93172040Y-111088558D01*
X93183916Y-111030762D01*
X93186149Y-111021662D01*
X93202387Y-110964918D01*
X93204697Y-110934577D01*
X93206878Y-110919028D01*
X93213000Y-110889241D01*
X93213000Y-110830259D01*
X93213358Y-110820844D01*
X93213551Y-110818302D01*
X93217837Y-110762024D01*
X93213993Y-110731848D01*
X93213000Y-110716183D01*
X93213000Y-108912000D01*
X93229613Y-108850000D01*
X93275000Y-108804613D01*
X93337000Y-108788000D01*
X94198222Y-108788000D01*
X94201362Y-108788039D01*
X94288863Y-108790257D01*
X94346958Y-108779844D01*
X94356239Y-108778542D01*
X94414938Y-108772574D01*
X94425128Y-108769377D01*
X94437917Y-108765364D01*
X94443964Y-108763466D01*
X94459213Y-108759724D01*
X94467772Y-108758190D01*
X94489153Y-108754358D01*
X94543923Y-108732480D01*
X94552803Y-108729318D01*
X94609088Y-108711659D01*
X94635694Y-108696890D01*
X94649862Y-108690162D01*
X94678117Y-108678877D01*
X94727391Y-108646402D01*
X94735410Y-108641543D01*
X94787002Y-108612909D01*
X94801562Y-108600409D01*
X94810083Y-108593094D01*
X94822625Y-108583637D01*
X94848019Y-108566902D01*
X94889738Y-108525181D01*
X94896622Y-108518801D01*
X94941395Y-108480366D01*
X94960020Y-108456302D01*
X94970379Y-108444540D01*
X95813323Y-107601597D01*
X95862682Y-107571350D01*
X95920398Y-107566808D01*
X95973885Y-107588963D01*
X96011484Y-107632986D01*
X96025000Y-107689280D01*
X96025000Y-107820164D01*
X96025321Y-107826447D01*
X96034455Y-107915867D01*
X96037274Y-107929036D01*
X96086180Y-108076625D01*
X96092246Y-108089633D01*
X96173632Y-108221580D01*
X96182537Y-108232842D01*
X96292157Y-108342462D01*
X96303419Y-108351367D01*
X96435366Y-108432753D01*
X96448374Y-108438819D01*
X96595969Y-108487727D01*
X96609125Y-108490543D01*
X96698555Y-108499680D01*
X96704832Y-108500000D01*
X96733674Y-108500000D01*
X96746549Y-108496549D01*
X96750000Y-108483674D01*
X96750000Y-108483673D01*
X97250000Y-108483673D01*
X97253450Y-108496548D01*
X97266326Y-108499999D01*
X97295165Y-108499999D01*
X97301447Y-108499678D01*
X97390867Y-108490544D01*
X97404036Y-108487725D01*
X97551625Y-108438819D01*
X97564633Y-108432753D01*
X97696580Y-108351367D01*
X97707842Y-108342462D01*
X97817462Y-108232842D01*
X97826367Y-108221580D01*
X97907753Y-108089633D01*
X97913819Y-108076625D01*
X97962727Y-107929030D01*
X97965543Y-107915874D01*
X97974680Y-107826444D01*
X97975000Y-107820168D01*
X97975000Y-107816326D01*
X97971549Y-107803450D01*
X97958674Y-107800000D01*
X97266326Y-107800000D01*
X97253450Y-107803450D01*
X97250000Y-107816326D01*
X97250000Y-108483673D01*
X96750000Y-108483673D01*
X96750000Y-107424000D01*
X96766613Y-107362000D01*
X96812000Y-107316613D01*
X96874000Y-107300000D01*
X97958673Y-107300000D01*
X97971548Y-107296549D01*
X97974999Y-107283674D01*
X97974999Y-107279835D01*
X97974678Y-107273552D01*
X97965544Y-107184132D01*
X97962725Y-107170963D01*
X97913819Y-107023374D01*
X97907753Y-107010366D01*
X97826367Y-106878419D01*
X97817462Y-106867157D01*
X97813339Y-106863034D01*
X97781244Y-106807442D01*
X97781247Y-106743251D01*
X97813346Y-106687665D01*
X97822968Y-106678044D01*
X97912003Y-106533697D01*
X97965349Y-106372708D01*
X97975500Y-106273345D01*
X97975499Y-106239771D01*
X97979457Y-106208693D01*
X97994063Y-106152285D01*
X98004369Y-105949064D01*
X97976929Y-105769946D01*
X97975499Y-105751169D01*
X97975499Y-105729805D01*
X97975499Y-105726656D01*
X97965349Y-105627292D01*
X97912003Y-105466303D01*
X97822968Y-105321956D01*
X97703044Y-105202032D01*
X97696894Y-105198238D01*
X97696892Y-105198237D01*
X97564845Y-105116789D01*
X97564843Y-105116788D01*
X97558697Y-105112997D01*
X97551842Y-105110725D01*
X97551841Y-105110725D01*
X97404137Y-105061781D01*
X97404134Y-105061780D01*
X97397708Y-105059651D01*
X97390975Y-105058963D01*
X97390970Y-105058962D01*
X97348417Y-105054615D01*
X97312122Y-105045208D01*
X97306838Y-105042940D01*
X97306834Y-105042938D01*
X97301058Y-105040460D01*
X97294901Y-105039194D01*
X97294899Y-105039194D01*
X97107899Y-105000765D01*
X97107894Y-105000764D01*
X97101741Y-104999500D01*
X97095453Y-104999500D01*
X96014278Y-104999500D01*
X96011137Y-104999460D01*
X95929924Y-104997402D01*
X95929921Y-104997402D01*
X95923637Y-104997243D01*
X95911267Y-104999460D01*
X95865578Y-105007648D01*
X95856254Y-105008955D01*
X95803821Y-105014288D01*
X95803807Y-105014290D01*
X95797562Y-105014926D01*
X95791568Y-105016806D01*
X95791565Y-105016807D01*
X95768526Y-105024035D01*
X95753292Y-105027774D01*
X95729533Y-105032033D01*
X95729532Y-105032033D01*
X95723347Y-105033142D01*
X95717511Y-105035472D01*
X95717504Y-105035475D01*
X95668568Y-105055021D01*
X95659698Y-105058179D01*
X95609411Y-105073957D01*
X95609396Y-105073963D01*
X95603412Y-105075841D01*
X95597923Y-105078887D01*
X95597915Y-105078891D01*
X95576818Y-105090601D01*
X95562642Y-105097333D01*
X95540227Y-105106286D01*
X95540213Y-105106292D01*
X95534383Y-105108622D01*
X95529139Y-105112077D01*
X95529135Y-105112080D01*
X95485122Y-105141087D01*
X95477065Y-105145967D01*
X95425498Y-105174591D01*
X95420734Y-105178680D01*
X95420719Y-105178691D01*
X95402405Y-105194413D01*
X95389883Y-105203855D01*
X95369732Y-105217136D01*
X95369721Y-105217144D01*
X95364482Y-105220598D01*
X95360038Y-105225041D01*
X95360034Y-105225045D01*
X95322781Y-105262297D01*
X95315875Y-105268698D01*
X95275875Y-105303038D01*
X95275869Y-105303043D01*
X95271105Y-105307134D01*
X95259632Y-105321956D01*
X95252480Y-105331195D01*
X95242108Y-105342970D01*
X93834399Y-106750681D01*
X93794171Y-106777561D01*
X93746718Y-106787000D01*
X93280296Y-106787000D01*
X93223840Y-106773403D01*
X93179766Y-106735593D01*
X93157739Y-106681863D01*
X93162590Y-106623996D01*
X93169205Y-106604033D01*
X93177936Y-106577685D01*
X93188000Y-106479174D01*
X93188000Y-106452274D01*
X93191958Y-106421193D01*
X93206563Y-106364785D01*
X93216869Y-106161564D01*
X93194779Y-106017373D01*
X93189430Y-105982453D01*
X93188000Y-105963676D01*
X93188000Y-105948975D01*
X93188000Y-105945826D01*
X93177936Y-105847315D01*
X93125049Y-105687713D01*
X93036781Y-105544609D01*
X92917891Y-105425719D01*
X92911741Y-105421925D01*
X92911739Y-105421924D01*
X92780935Y-105341243D01*
X92780934Y-105341242D01*
X92774787Y-105337451D01*
X92746589Y-105328107D01*
X92621614Y-105286694D01*
X92621610Y-105286693D01*
X92615185Y-105284564D01*
X92608448Y-105283875D01*
X92608440Y-105283874D01*
X92597324Y-105282738D01*
X92561032Y-105273332D01*
X92519340Y-105255441D01*
X92519337Y-105255440D01*
X92513558Y-105252960D01*
X92476090Y-105245260D01*
X92320399Y-105213265D01*
X92320394Y-105213264D01*
X92314241Y-105212000D01*
X92307953Y-105212000D01*
X90034926Y-105212000D01*
X90031785Y-105211960D01*
X89950572Y-105209902D01*
X89950569Y-105209902D01*
X89944285Y-105209743D01*
X89938101Y-105210851D01*
X89938091Y-105210852D01*
X89886226Y-105220148D01*
X89876899Y-105221457D01*
X89824464Y-105226789D01*
X89824454Y-105226790D01*
X89818210Y-105227426D01*
X89812214Y-105229307D01*
X89812210Y-105229308D01*
X89789174Y-105236535D01*
X89773938Y-105240274D01*
X89750192Y-105244530D01*
X89750178Y-105244533D01*
X89743996Y-105245642D01*
X89738161Y-105247972D01*
X89738149Y-105247976D01*
X89689220Y-105267520D01*
X89680349Y-105270679D01*
X89630061Y-105286457D01*
X89630051Y-105286460D01*
X89624060Y-105288341D01*
X89618564Y-105291390D01*
X89618560Y-105291393D01*
X89597468Y-105303100D01*
X89583294Y-105309831D01*
X89560873Y-105318787D01*
X89560861Y-105318792D01*
X89555031Y-105321122D01*
X89549784Y-105324579D01*
X89549784Y-105324580D01*
X89505770Y-105353587D01*
X89497713Y-105358467D01*
X89446146Y-105387091D01*
X89441382Y-105391180D01*
X89441367Y-105391191D01*
X89423053Y-105406913D01*
X89410531Y-105416355D01*
X89390380Y-105429636D01*
X89390369Y-105429644D01*
X89385130Y-105433098D01*
X89380686Y-105437541D01*
X89380682Y-105437545D01*
X89343429Y-105474797D01*
X89336523Y-105481198D01*
X89296523Y-105515538D01*
X89296517Y-105515543D01*
X89291753Y-105519634D01*
X89276377Y-105539498D01*
X89273131Y-105543691D01*
X89262759Y-105555466D01*
X89243684Y-105574541D01*
X89196713Y-105603987D01*
X89141605Y-105610021D01*
X89089375Y-105591439D01*
X89056765Y-105558350D01*
X89055843Y-105559080D01*
X89042462Y-105542157D01*
X88932842Y-105432537D01*
X88921580Y-105423632D01*
X88789633Y-105342246D01*
X88776625Y-105336180D01*
X88629030Y-105287272D01*
X88615874Y-105284456D01*
X88526444Y-105275319D01*
X88520168Y-105275000D01*
X88491326Y-105275000D01*
X88478450Y-105278450D01*
X88475000Y-105291326D01*
X88475000Y-106291866D01*
X88465561Y-106339319D01*
X88438681Y-106379547D01*
X88379547Y-106438681D01*
X88339319Y-106465561D01*
X88291866Y-106475000D01*
X87266327Y-106475000D01*
X87253451Y-106478450D01*
X87250001Y-106491326D01*
X87250001Y-106495165D01*
X87250321Y-106501447D01*
X87259455Y-106590867D01*
X87262274Y-106604033D01*
X87264747Y-106611496D01*
X87269598Y-106669363D01*
X87247571Y-106723093D01*
X87203496Y-106760903D01*
X87147041Y-106774500D01*
X86240782Y-106774500D01*
X86193329Y-106765061D01*
X86153101Y-106738181D01*
X85373594Y-105958674D01*
X87250000Y-105958674D01*
X87253450Y-105971549D01*
X87266326Y-105975000D01*
X87958674Y-105975000D01*
X87971549Y-105971549D01*
X87975000Y-105958674D01*
X87975000Y-105291327D01*
X87971549Y-105278451D01*
X87958674Y-105275001D01*
X87929835Y-105275001D01*
X87923552Y-105275321D01*
X87834132Y-105284455D01*
X87820963Y-105287274D01*
X87673374Y-105336180D01*
X87660366Y-105342246D01*
X87528419Y-105423632D01*
X87517157Y-105432537D01*
X87407537Y-105542157D01*
X87398632Y-105553419D01*
X87317246Y-105685366D01*
X87311180Y-105698374D01*
X87262272Y-105845969D01*
X87259456Y-105859125D01*
X87250319Y-105948555D01*
X87250000Y-105954832D01*
X87250000Y-105958674D01*
X85373594Y-105958674D01*
X84771894Y-105356974D01*
X84743320Y-105312429D01*
X84735922Y-105260027D01*
X84736452Y-105252960D01*
X84750500Y-105065494D01*
X84750500Y-100138096D01*
X84767107Y-100076105D01*
X84812481Y-100030720D01*
X84874467Y-100014096D01*
X99650589Y-100010175D01*
X137865573Y-100000035D01*
X137930440Y-100018336D01*
G37*
%TD.AperFunction*%
%TD*%
M02*
