%TF.GenerationSoftware,KiCad,Pcbnew,(7.0.0)*%
%TF.CreationDate,2026-09-24T03:06:42+02:00*%
%TF.ProjectId,Coplanar IFA,436f706c-616e-4617-9220-4946412e6b69,rev?*%
%TF.SameCoordinates,Original*%
%TF.FileFunction,Copper,L2,Bot*%
%TF.FilePolarity,Positive*%
%FSLAX46Y46*%
G04 Gerber Fmt 4.6, Leading zero omitted, Abs format (unit mm)*
G04 Created by KiCad (PCBNEW (7.0.0)) date 2026-09-24 03:06:42*
%MOMM*%
%LPD*%
G01*
G04 APERTURE LIST*
%TA.AperFunction,ComponentPad*%
%ADD10C,0.970000*%
%TD*%
%TA.AperFunction,SMDPad,CuDef*%
%ADD11R,0.460000X0.950000*%
%TD*%
%TA.AperFunction,SMDPad,CuDef*%
%ADD12R,2.420000X5.080000*%
%TD*%
%TA.AperFunction,ViaPad*%
%ADD13C,0.800000*%
%TD*%
G04 APERTURE END LIST*
D10*
%TO.P,J1,2,Ext*%
%TO.N,GND*%
X87380000Y-125510000D03*
D11*
X87379999Y-125059999D03*
D12*
X87379999Y-122069999D03*
D10*
X78620000Y-125510000D03*
D12*
X78619999Y-122069999D03*
D11*
X78619999Y-125059999D03*
%TD*%
D13*
%TO.N,GND*%
X74000000Y-103000000D03*
X79000000Y-103000000D03*
X130000000Y-103000000D03*
X125000000Y-103000000D03*
X120000000Y-103000000D03*
X115000000Y-103000000D03*
X110000000Y-103000000D03*
X105000000Y-103000000D03*
X100000000Y-103000000D03*
X95000000Y-103000000D03*
X90000000Y-103000000D03*
%TD*%
%TA.AperFunction,Conductor*%
%TO.N,GND*%
G36*
X100335876Y-61821654D02*
G01*
X100891942Y-61830629D01*
X100893670Y-61830671D01*
X101561276Y-61852080D01*
X101563127Y-61852154D01*
X102118618Y-61879069D01*
X102120401Y-61879170D01*
X102786979Y-61921965D01*
X102788905Y-61922104D01*
X103343207Y-61966929D01*
X103344907Y-61967081D01*
X104009863Y-62031228D01*
X104011709Y-62031421D01*
X104564346Y-62094119D01*
X104565902Y-62094307D01*
X105228608Y-62179754D01*
X105230497Y-62180015D01*
X105780654Y-62260489D01*
X105782120Y-62260714D01*
X106442015Y-62367401D01*
X106443783Y-62367703D01*
X106990931Y-62465867D01*
X106992549Y-62466169D01*
X107648482Y-62593912D01*
X107650571Y-62594337D01*
X108194150Y-62710083D01*
X108195541Y-62710389D01*
X108847321Y-62859154D01*
X108849350Y-62859637D01*
X109388568Y-62992779D01*
X109390199Y-62993193D01*
X110036952Y-63162792D01*
X110038976Y-63163342D01*
X110573597Y-63313810D01*
X110575068Y-63314236D01*
X111216211Y-63504524D01*
X111218211Y-63505137D01*
X111658307Y-63644477D01*
X111747416Y-63672691D01*
X111749060Y-63673224D01*
X112383926Y-63884014D01*
X112385813Y-63884659D01*
X112909363Y-64069213D01*
X112910776Y-64069723D01*
X113538684Y-64300798D01*
X113540690Y-64301557D01*
X114057777Y-64502819D01*
X114059179Y-64503376D01*
X114679602Y-64754557D01*
X114681690Y-64755426D01*
X115191571Y-64973081D01*
X115192983Y-64973696D01*
X115805293Y-65244747D01*
X115807343Y-65245677D01*
X116309904Y-65479659D01*
X116310925Y-65480143D01*
X116914703Y-65770907D01*
X116916720Y-65771902D01*
X117411125Y-66021808D01*
X117412234Y-66022377D01*
X118006613Y-66332465D01*
X118008564Y-66333507D01*
X118494294Y-66599044D01*
X118495577Y-66599756D01*
X118718066Y-66725060D01*
X119079782Y-66928775D01*
X119081893Y-66929991D01*
X119558304Y-67210772D01*
X119559624Y-67211561D01*
X119776128Y-67342806D01*
X120133466Y-67559426D01*
X120135365Y-67560604D01*
X120602264Y-67856485D01*
X120603495Y-67857275D01*
X121166074Y-68223474D01*
X121168148Y-68224854D01*
X121409882Y-68389212D01*
X121624909Y-68535411D01*
X121626027Y-68536182D01*
X121829766Y-68678301D01*
X122176892Y-68920441D01*
X122178943Y-68921902D01*
X122625050Y-69246752D01*
X122626223Y-69247617D01*
X123164843Y-69649599D01*
X123166856Y-69651133D01*
X123601924Y-69989959D01*
X123602898Y-69990726D01*
X124128839Y-70410150D01*
X124130760Y-70411715D01*
X124343874Y-70589025D01*
X124554278Y-70764080D01*
X124555350Y-70764983D01*
X124738628Y-70921009D01*
X125067867Y-71201295D01*
X125069772Y-71202951D01*
X125481251Y-71568403D01*
X125482215Y-71569268D01*
X125980958Y-72022213D01*
X125982802Y-72023924D01*
X126229316Y-72257521D01*
X126381914Y-72402124D01*
X126382887Y-72403056D01*
X126867156Y-72872044D01*
X126869043Y-72873911D01*
X127255247Y-73264293D01*
X127256170Y-73265236D01*
X127725609Y-73749970D01*
X127727454Y-73751917D01*
X128100413Y-74154078D01*
X128101287Y-74155031D01*
X128555395Y-74655054D01*
X128557195Y-74657079D01*
X128916575Y-75070598D01*
X128917400Y-75071558D01*
X129355633Y-75586332D01*
X129357384Y-75588435D01*
X129702751Y-76012745D01*
X129703528Y-76013709D01*
X130125543Y-76542900D01*
X130127242Y-76545080D01*
X130458251Y-76979678D01*
X130458980Y-76980645D01*
X130864288Y-77523720D01*
X130865932Y-77525975D01*
X131182279Y-77970375D01*
X131182961Y-77971343D01*
X131571141Y-78527828D01*
X131572684Y-78530095D01*
X131723650Y-78757352D01*
X131874016Y-78983707D01*
X131874652Y-78984674D01*
X132245301Y-79554090D01*
X132246826Y-79556492D01*
X132532835Y-80018741D01*
X132533425Y-80019704D01*
X132886132Y-80601531D01*
X132887592Y-80604004D01*
X133158058Y-81074409D01*
X133158604Y-81075368D01*
X133492948Y-81669030D01*
X133494341Y-81671573D01*
X133749016Y-82149580D01*
X133749517Y-82150531D01*
X134065136Y-82755515D01*
X134066459Y-82758126D01*
X134305033Y-83243002D01*
X134305492Y-83243944D01*
X134602080Y-83859815D01*
X134603330Y-83862492D01*
X134825668Y-84353786D01*
X134826085Y-84354718D01*
X135103247Y-84980833D01*
X135104421Y-84983573D01*
X135310280Y-85480561D01*
X135310657Y-85481481D01*
X135568100Y-86117371D01*
X135569195Y-86120173D01*
X135758488Y-86622430D01*
X135758825Y-86623336D01*
X135996165Y-87268264D01*
X135997179Y-87271125D01*
X136169702Y-87777869D01*
X136170001Y-87778760D01*
X136387020Y-88432386D01*
X136387949Y-88435304D01*
X136543539Y-88945743D01*
X136543802Y-88946617D01*
X136740236Y-89608471D01*
X136741078Y-89611443D01*
X136879654Y-90124926D01*
X136879882Y-90125782D01*
X137055451Y-90795305D01*
X137056203Y-90798330D01*
X137177734Y-91314316D01*
X137177928Y-91315151D01*
X137332325Y-91991607D01*
X137332986Y-91994682D01*
X137437451Y-92512578D01*
X137437612Y-92513392D01*
X137570598Y-93196250D01*
X137571165Y-93199371D01*
X137658504Y-93718240D01*
X137658635Y-93719033D01*
X137770014Y-94407950D01*
X137770483Y-94411114D01*
X137840739Y-94930365D01*
X137840841Y-94931134D01*
X137930354Y-95625372D01*
X137930725Y-95628577D01*
X137983957Y-96147581D01*
X137984031Y-96148326D01*
X138051469Y-96847391D01*
X138051739Y-96850633D01*
X138088011Y-97368462D01*
X138088059Y-97369182D01*
X138133224Y-98072661D01*
X138133391Y-98075938D01*
X138152827Y-98591839D01*
X138152851Y-98592533D01*
X138175535Y-99299918D01*
X138175597Y-99303225D01*
X138178359Y-99816464D01*
X138178361Y-99817131D01*
X138178361Y-100527901D01*
X138178316Y-100531236D01*
X138164596Y-101041140D01*
X138164577Y-101041779D01*
X138141695Y-101755336D01*
X138141542Y-101758695D01*
X138111590Y-102264283D01*
X138111552Y-102264895D01*
X138065578Y-102980987D01*
X138065315Y-102984366D01*
X138019420Y-103484813D01*
X138019365Y-103485396D01*
X137950086Y-104203543D01*
X137949711Y-104206939D01*
X137888231Y-104701300D01*
X137888161Y-104701854D01*
X137795336Y-105421791D01*
X137794848Y-105425200D01*
X137718221Y-105912395D01*
X137718138Y-105912920D01*
X137601494Y-106634399D01*
X137600892Y-106637817D01*
X137509527Y-107117336D01*
X137509431Y-107117831D01*
X137368759Y-107840153D01*
X137368042Y-107843577D01*
X137262593Y-108313900D01*
X137262488Y-108314365D01*
X137097365Y-109037815D01*
X137096532Y-109041240D01*
X136977647Y-109501389D01*
X136977534Y-109501824D01*
X136787594Y-110226147D01*
X136786643Y-110229571D01*
X136655096Y-110678389D01*
X136654977Y-110678793D01*
X136439779Y-111403867D01*
X136438711Y-111407284D01*
X136295428Y-111843470D01*
X136295304Y-111843845D01*
X136054262Y-112569824D01*
X136053076Y-112573231D01*
X135899151Y-112995354D01*
X135899024Y-112995699D01*
X135631464Y-113722745D01*
X135630159Y-113726137D01*
X135467058Y-114132202D01*
X135466931Y-114132518D01*
X135171783Y-114861537D01*
X135170359Y-114864910D01*
X134999646Y-115253203D01*
X134999519Y-115253490D01*
X134675735Y-115984922D01*
X134674192Y-115988273D01*
X134498108Y-116356084D01*
X134497984Y-116356342D01*
X134143807Y-117091798D01*
X134142145Y-117095121D01*
X133963221Y-117439837D01*
X133963101Y-117440067D01*
X133576556Y-118180999D01*
X133574775Y-118184291D01*
X133396796Y-118501698D01*
X133396682Y-118501900D01*
X132974570Y-119251400D01*
X132972671Y-119254657D01*
X132800634Y-119539508D01*
X132800528Y-119539683D01*
X132338468Y-120301897D01*
X132336450Y-120305114D01*
X132177188Y-120550550D01*
X132177091Y-120550698D01*
X131668942Y-121331350D01*
X131666806Y-121334523D01*
X131531002Y-121529711D01*
X131530916Y-121529834D01*
X130966629Y-122338783D01*
X130964377Y-122341908D01*
X130870001Y-122468625D01*
X130869927Y-122468724D01*
X130232277Y-123323114D01*
X130229912Y-123326181D01*
X130209097Y-123352326D01*
X130209092Y-123352329D01*
X130209094Y-123352330D01*
X129468701Y-124280754D01*
X129466173Y-124283821D01*
X128675347Y-125212770D01*
X128672722Y-125215755D01*
X127852488Y-126118924D01*
X127849769Y-126121824D01*
X127036331Y-126961765D01*
X126995625Y-126989677D01*
X126947256Y-126999500D01*
X73052744Y-126999500D01*
X73004375Y-126989677D01*
X72963669Y-126961765D01*
X72381228Y-126360348D01*
X78126897Y-126360348D01*
X78135367Y-126367838D01*
X78235858Y-126421552D01*
X78247064Y-126426193D01*
X78421075Y-126478979D01*
X78432970Y-126481345D01*
X78613939Y-126499169D01*
X78626061Y-126499169D01*
X78807029Y-126481345D01*
X78818924Y-126478979D01*
X78992935Y-126426193D01*
X79004141Y-126421552D01*
X79104630Y-126367838D01*
X79113100Y-126360348D01*
X86886897Y-126360348D01*
X86895367Y-126367838D01*
X86995858Y-126421552D01*
X87007064Y-126426193D01*
X87181075Y-126478979D01*
X87192970Y-126481345D01*
X87373939Y-126499169D01*
X87386061Y-126499169D01*
X87567029Y-126481345D01*
X87578924Y-126478979D01*
X87752935Y-126426193D01*
X87764141Y-126421552D01*
X87864630Y-126367838D01*
X87873100Y-126360348D01*
X87867169Y-126350722D01*
X87391542Y-125875095D01*
X87380000Y-125868431D01*
X87368456Y-125875096D01*
X86892829Y-126350722D01*
X86886897Y-126360348D01*
X79113100Y-126360348D01*
X79107169Y-126350722D01*
X78631542Y-125875095D01*
X78620000Y-125868431D01*
X78608456Y-125875096D01*
X78132829Y-126350722D01*
X78126897Y-126360348D01*
X72381228Y-126360348D01*
X72150230Y-126121824D01*
X72147511Y-126118924D01*
X71327277Y-125215755D01*
X71324652Y-125212770D01*
X71279841Y-125160133D01*
X70849405Y-124654518D01*
X76910000Y-124654518D01*
X76910353Y-124661114D01*
X76915573Y-124709667D01*
X76919111Y-124724641D01*
X76963547Y-124843777D01*
X76971962Y-124859189D01*
X77047498Y-124960092D01*
X77059907Y-124972501D01*
X77160810Y-125048037D01*
X77176222Y-125056452D01*
X77295358Y-125100888D01*
X77310332Y-125104426D01*
X77358885Y-125109646D01*
X77365482Y-125110000D01*
X77544821Y-125110000D01*
X77600573Y-125123240D01*
X77644419Y-125160133D01*
X77666995Y-125212800D01*
X77663482Y-125269995D01*
X77651020Y-125311075D01*
X77648654Y-125322970D01*
X77630831Y-125503939D01*
X77630831Y-125516061D01*
X77648654Y-125697029D01*
X77651020Y-125708924D01*
X77703806Y-125882935D01*
X77708447Y-125894141D01*
X77762161Y-125994631D01*
X77769650Y-126003101D01*
X77779276Y-125997169D01*
X78476069Y-125300377D01*
X78481537Y-125291454D01*
X78758462Y-125291454D01*
X78763930Y-125300377D01*
X79460722Y-125997169D01*
X79470348Y-126003100D01*
X79477838Y-125994630D01*
X79531552Y-125894141D01*
X79536193Y-125882935D01*
X79588979Y-125708924D01*
X79591345Y-125697029D01*
X79609169Y-125516061D01*
X79609169Y-125503939D01*
X79591345Y-125322970D01*
X79588979Y-125311075D01*
X79576518Y-125269995D01*
X79573005Y-125212800D01*
X79595581Y-125160133D01*
X79639427Y-125123240D01*
X79695179Y-125110000D01*
X79874518Y-125110000D01*
X79881114Y-125109646D01*
X79929667Y-125104426D01*
X79944641Y-125100888D01*
X80063777Y-125056452D01*
X80079189Y-125048037D01*
X80180092Y-124972501D01*
X80192501Y-124960092D01*
X80268037Y-124859189D01*
X80276452Y-124843777D01*
X80320888Y-124724641D01*
X80324426Y-124709667D01*
X80329646Y-124661114D01*
X80330000Y-124654518D01*
X85670000Y-124654518D01*
X85670353Y-124661114D01*
X85675573Y-124709667D01*
X85679111Y-124724641D01*
X85723547Y-124843777D01*
X85731962Y-124859189D01*
X85807498Y-124960092D01*
X85819907Y-124972501D01*
X85920810Y-125048037D01*
X85936222Y-125056452D01*
X86055358Y-125100888D01*
X86070332Y-125104426D01*
X86118885Y-125109646D01*
X86125482Y-125110000D01*
X86304821Y-125110000D01*
X86360573Y-125123240D01*
X86404419Y-125160133D01*
X86426995Y-125212800D01*
X86423482Y-125269995D01*
X86411020Y-125311075D01*
X86408654Y-125322970D01*
X86390831Y-125503939D01*
X86390831Y-125516061D01*
X86408654Y-125697029D01*
X86411020Y-125708924D01*
X86463806Y-125882935D01*
X86468447Y-125894141D01*
X86522161Y-125994631D01*
X86529650Y-126003101D01*
X86539276Y-125997169D01*
X87236069Y-125300377D01*
X87241537Y-125291454D01*
X87518462Y-125291454D01*
X87523930Y-125300377D01*
X88220722Y-125997169D01*
X88230348Y-126003100D01*
X88237838Y-125994630D01*
X88291552Y-125894141D01*
X88296193Y-125882935D01*
X88348979Y-125708924D01*
X88351345Y-125697029D01*
X88369169Y-125516061D01*
X88369169Y-125503939D01*
X88351345Y-125322970D01*
X88348979Y-125311075D01*
X88336518Y-125269995D01*
X88333005Y-125212800D01*
X88355581Y-125160133D01*
X88399427Y-125123240D01*
X88455179Y-125110000D01*
X88634518Y-125110000D01*
X88641114Y-125109646D01*
X88689667Y-125104426D01*
X88704641Y-125100888D01*
X88823777Y-125056452D01*
X88839189Y-125048037D01*
X88940092Y-124972501D01*
X88952501Y-124960092D01*
X89028037Y-124859189D01*
X89036452Y-124843777D01*
X89080888Y-124724641D01*
X89084426Y-124709667D01*
X89089646Y-124661114D01*
X89090000Y-124654518D01*
X89090000Y-122336326D01*
X89086549Y-122323450D01*
X89073674Y-122320000D01*
X87646326Y-122320000D01*
X87633450Y-122323450D01*
X87630000Y-122336326D01*
X87630000Y-125084613D01*
X87620561Y-125132066D01*
X87618255Y-125135516D01*
X87610000Y-125166326D01*
X87610000Y-125172615D01*
X87597920Y-125225999D01*
X87564035Y-125268982D01*
X87518462Y-125291454D01*
X87241537Y-125291454D01*
X87195965Y-125268982D01*
X87162080Y-125225999D01*
X87150000Y-125172615D01*
X87150000Y-125166326D01*
X87141744Y-125135516D01*
X87139439Y-125132066D01*
X87130000Y-125084613D01*
X87130000Y-122336326D01*
X87126549Y-122323450D01*
X87113674Y-122320000D01*
X85686326Y-122320000D01*
X85673450Y-122323450D01*
X85670000Y-122336326D01*
X85670000Y-124654518D01*
X80330000Y-124654518D01*
X80330000Y-122336326D01*
X80326549Y-122323450D01*
X80313674Y-122320000D01*
X78886326Y-122320000D01*
X78873450Y-122323450D01*
X78870000Y-122336326D01*
X78870000Y-125084613D01*
X78860561Y-125132066D01*
X78858255Y-125135516D01*
X78850000Y-125166326D01*
X78850000Y-125172615D01*
X78837920Y-125225999D01*
X78804035Y-125268982D01*
X78758462Y-125291454D01*
X78481537Y-125291454D01*
X78435965Y-125268982D01*
X78402080Y-125225999D01*
X78390000Y-125172615D01*
X78390000Y-125166326D01*
X78381744Y-125135516D01*
X78379439Y-125132066D01*
X78370000Y-125084613D01*
X78370000Y-122336326D01*
X78366549Y-122323450D01*
X78353674Y-122320000D01*
X76926326Y-122320000D01*
X76913450Y-122323450D01*
X76910000Y-122336326D01*
X76910000Y-124654518D01*
X70849405Y-124654518D01*
X70533818Y-124283811D01*
X70531298Y-124280754D01*
X69790905Y-123352330D01*
X69790905Y-123352329D01*
X69790904Y-123352329D01*
X69770088Y-123326184D01*
X69767721Y-123323114D01*
X69130072Y-122468724D01*
X69129999Y-122468626D01*
X69035622Y-122341909D01*
X69033369Y-122338783D01*
X69022673Y-122323450D01*
X68660101Y-121803674D01*
X76910000Y-121803674D01*
X76913450Y-121816549D01*
X76926326Y-121820000D01*
X78353674Y-121820000D01*
X78366549Y-121816549D01*
X78370000Y-121803674D01*
X78870000Y-121803674D01*
X78873450Y-121816549D01*
X78886326Y-121820000D01*
X80313674Y-121820000D01*
X80326549Y-121816549D01*
X80330000Y-121803674D01*
X85670000Y-121803674D01*
X85673450Y-121816549D01*
X85686326Y-121820000D01*
X87113674Y-121820000D01*
X87126549Y-121816549D01*
X87130000Y-121803674D01*
X87630000Y-121803674D01*
X87633450Y-121816549D01*
X87646326Y-121820000D01*
X89073674Y-121820000D01*
X89086549Y-121816549D01*
X89090000Y-121803674D01*
X89090000Y-119485482D01*
X89089646Y-119478885D01*
X89084426Y-119430332D01*
X89080888Y-119415358D01*
X89036452Y-119296222D01*
X89028037Y-119280810D01*
X88952501Y-119179907D01*
X88940092Y-119167498D01*
X88839189Y-119091962D01*
X88823777Y-119083547D01*
X88704641Y-119039111D01*
X88689667Y-119035573D01*
X88641114Y-119030353D01*
X88634518Y-119030000D01*
X87646326Y-119030000D01*
X87633450Y-119033450D01*
X87630000Y-119046326D01*
X87630000Y-121803674D01*
X87130000Y-121803674D01*
X87130000Y-119046326D01*
X87126549Y-119033450D01*
X87113674Y-119030000D01*
X86125482Y-119030000D01*
X86118885Y-119030353D01*
X86070332Y-119035573D01*
X86055358Y-119039111D01*
X85936222Y-119083547D01*
X85920810Y-119091962D01*
X85819907Y-119167498D01*
X85807498Y-119179907D01*
X85731962Y-119280810D01*
X85723547Y-119296222D01*
X85679111Y-119415358D01*
X85675573Y-119430332D01*
X85670353Y-119478885D01*
X85670000Y-119485482D01*
X85670000Y-121803674D01*
X80330000Y-121803674D01*
X80330000Y-119485482D01*
X80329646Y-119478885D01*
X80324426Y-119430332D01*
X80320888Y-119415358D01*
X80276452Y-119296222D01*
X80268037Y-119280810D01*
X80192501Y-119179907D01*
X80180092Y-119167498D01*
X80079189Y-119091962D01*
X80063777Y-119083547D01*
X79944641Y-119039111D01*
X79929667Y-119035573D01*
X79881114Y-119030353D01*
X79874518Y-119030000D01*
X78886326Y-119030000D01*
X78873450Y-119033450D01*
X78870000Y-119046326D01*
X78870000Y-121803674D01*
X78370000Y-121803674D01*
X78370000Y-119046326D01*
X78366549Y-119033450D01*
X78353674Y-119030000D01*
X77365482Y-119030000D01*
X77358885Y-119030353D01*
X77310332Y-119035573D01*
X77295358Y-119039111D01*
X77176222Y-119083547D01*
X77160810Y-119091962D01*
X77059907Y-119167498D01*
X77047498Y-119179907D01*
X76971962Y-119280810D01*
X76963547Y-119296222D01*
X76919111Y-119415358D01*
X76915573Y-119430332D01*
X76910353Y-119478885D01*
X76910000Y-119485482D01*
X76910000Y-121803674D01*
X68660101Y-121803674D01*
X68469082Y-121529834D01*
X68469031Y-121529688D01*
X68468997Y-121529712D01*
X68333186Y-121334515D01*
X68331056Y-121331350D01*
X67822908Y-120550698D01*
X67822812Y-120550550D01*
X67663549Y-120305114D01*
X67661530Y-120301897D01*
X67199366Y-119539508D01*
X67027290Y-119254594D01*
X67025428Y-119251400D01*
X66985164Y-119179907D01*
X66603177Y-118501651D01*
X66425221Y-118184288D01*
X66423442Y-118180999D01*
X66036898Y-117440067D01*
X66036778Y-117439837D01*
X65857826Y-117095067D01*
X65856192Y-117091798D01*
X65501891Y-116356084D01*
X65325793Y-115988246D01*
X65324276Y-115984951D01*
X65000347Y-115253190D01*
X64829632Y-114864896D01*
X64828215Y-114861537D01*
X64533068Y-114132518D01*
X64532941Y-114132203D01*
X64532941Y-114132202D01*
X64369822Y-113726095D01*
X64368551Y-113722791D01*
X64100779Y-112995166D01*
X63946912Y-112573205D01*
X63945736Y-112569824D01*
X63767738Y-112033722D01*
X63704568Y-111843465D01*
X63561281Y-111407267D01*
X63560219Y-111403867D01*
X63344985Y-110678673D01*
X63344902Y-110678389D01*
X63213340Y-110229519D01*
X63212418Y-110226200D01*
X63022404Y-109501594D01*
X62903457Y-109041204D01*
X62902642Y-109037853D01*
X62737417Y-108313957D01*
X62631940Y-107843505D01*
X62631254Y-107840229D01*
X62490470Y-107117329D01*
X62399103Y-106637804D01*
X62398504Y-106634399D01*
X62311296Y-106094988D01*
X62281821Y-105912673D01*
X62205141Y-105425138D01*
X62204671Y-105421854D01*
X62111833Y-104701825D01*
X62111767Y-104701300D01*
X62050287Y-104206939D01*
X62049912Y-104203543D01*
X61980578Y-103484813D01*
X61934674Y-102984260D01*
X61934428Y-102981097D01*
X61888420Y-102264487D01*
X61858453Y-101758636D01*
X61858305Y-101755398D01*
X61835416Y-101041624D01*
X61835402Y-101041140D01*
X61821684Y-100531236D01*
X61821639Y-100527901D01*
X61821639Y-99817131D01*
X61821641Y-99816464D01*
X61824402Y-99303169D01*
X61824461Y-99299974D01*
X61847162Y-98592096D01*
X61866612Y-98075839D01*
X61866768Y-98072762D01*
X61911971Y-97368697D01*
X61948266Y-96850537D01*
X61948520Y-96847490D01*
X62016014Y-96147845D01*
X62069288Y-95628439D01*
X62069627Y-95625515D01*
X62159210Y-94930724D01*
X62229528Y-94411021D01*
X62229970Y-94408044D01*
X62341433Y-93718609D01*
X62428847Y-93199292D01*
X62429384Y-93196333D01*
X62562498Y-92512822D01*
X62667034Y-91994579D01*
X62667650Y-91991711D01*
X62822171Y-91314715D01*
X62943821Y-90798221D01*
X62944519Y-90795414D01*
X63120230Y-90125352D01*
X63258943Y-89611358D01*
X63259742Y-89608538D01*
X63456339Y-88946137D01*
X63612085Y-88435189D01*
X63612940Y-88432503D01*
X63830194Y-87778169D01*
X64002867Y-87270989D01*
X64003782Y-87268407D01*
X64241314Y-86622954D01*
X64241435Y-86622629D01*
X64430829Y-86120106D01*
X64431871Y-86117439D01*
X64689477Y-85481147D01*
X64689574Y-85480912D01*
X64895625Y-84983460D01*
X64896700Y-84980949D01*
X65174151Y-84354185D01*
X65396708Y-83862405D01*
X65397876Y-83859904D01*
X65694613Y-83243723D01*
X65694842Y-83243254D01*
X65933581Y-82758042D01*
X65934818Y-82755600D01*
X66250708Y-82150099D01*
X66250799Y-82149927D01*
X66505712Y-81671470D01*
X66506991Y-81669136D01*
X66841668Y-81074884D01*
X66841740Y-81074758D01*
X67112439Y-80603947D01*
X67113832Y-80601587D01*
X67466673Y-80019539D01*
X67467068Y-80018895D01*
X67753244Y-79556377D01*
X67754619Y-79554211D01*
X68125513Y-78984419D01*
X68125832Y-78983934D01*
X68427396Y-78529973D01*
X68428772Y-78527952D01*
X68817283Y-77970992D01*
X68817534Y-77970636D01*
X69134115Y-77525906D01*
X69135658Y-77523791D01*
X69541098Y-76980537D01*
X69541681Y-76979764D01*
X69872811Y-76545008D01*
X69874398Y-76542972D01*
X70296702Y-76013419D01*
X70297049Y-76012989D01*
X70642687Y-75588347D01*
X70644290Y-75586421D01*
X71082871Y-75071238D01*
X71083217Y-75070837D01*
X71442893Y-74656976D01*
X71444551Y-74655111D01*
X71898759Y-74154977D01*
X71899459Y-74154214D01*
X72272617Y-73751839D01*
X72274315Y-73750047D01*
X72744013Y-73265046D01*
X72744582Y-73264465D01*
X73131069Y-72873797D01*
X73132724Y-72872160D01*
X73617272Y-72402901D01*
X73617945Y-72402256D01*
X74017291Y-72023835D01*
X74018944Y-72022301D01*
X74517973Y-71569097D01*
X74518580Y-71568552D01*
X74930328Y-71202862D01*
X74932035Y-71201377D01*
X75444767Y-70764882D01*
X75445620Y-70764164D01*
X75869332Y-70411637D01*
X75871059Y-70410231D01*
X76397300Y-69990568D01*
X76397905Y-69990091D01*
X76833236Y-69651061D01*
X76835045Y-69649682D01*
X77373918Y-69247510D01*
X77374832Y-69246836D01*
X77821155Y-68921830D01*
X77822997Y-68920518D01*
X78374153Y-68536055D01*
X78374939Y-68535514D01*
X78831908Y-68224815D01*
X78833866Y-68223512D01*
X79396695Y-67857151D01*
X79397580Y-67856583D01*
X79864725Y-67560546D01*
X79866437Y-67559484D01*
X80440402Y-67211543D01*
X80441596Y-67210830D01*
X80918178Y-66929948D01*
X80920138Y-66928819D01*
X81504569Y-66599674D01*
X81505574Y-66599116D01*
X81991520Y-66333460D01*
X81993292Y-66332514D01*
X82587902Y-66022306D01*
X82588750Y-66021871D01*
X83083362Y-65771861D01*
X83085213Y-65770947D01*
X83689190Y-65480087D01*
X83689979Y-65479714D01*
X84192733Y-65245641D01*
X84194610Y-65244789D01*
X84807136Y-64973642D01*
X84808319Y-64973128D01*
X85318385Y-64755394D01*
X85320321Y-64754588D01*
X85940933Y-64503330D01*
X85942122Y-64502858D01*
X86459378Y-64301530D01*
X86461235Y-64300828D01*
X87089323Y-64069686D01*
X87090547Y-64069245D01*
X87614251Y-63884636D01*
X87615998Y-63884039D01*
X88251008Y-63673201D01*
X88252517Y-63672711D01*
X88781850Y-63505118D01*
X88783727Y-63504542D01*
X89425017Y-63314210D01*
X89426328Y-63313831D01*
X89961080Y-63163326D01*
X89962989Y-63162807D01*
X90609871Y-62993174D01*
X90611388Y-62992789D01*
X91150698Y-62859624D01*
X91152620Y-62859167D01*
X91804533Y-62710372D01*
X91805790Y-62710095D01*
X92349473Y-62594328D01*
X92351471Y-62593921D01*
X93007510Y-62466157D01*
X93009019Y-62465875D01*
X93556256Y-62367696D01*
X93557946Y-62367407D01*
X94217922Y-62260707D01*
X94219303Y-62260495D01*
X94769534Y-62180010D01*
X94771357Y-62179759D01*
X95434140Y-62094302D01*
X95435622Y-62094122D01*
X95988314Y-62031419D01*
X95990115Y-62031230D01*
X96655116Y-61967078D01*
X96656770Y-61966931D01*
X97211111Y-61922103D01*
X97213002Y-61921966D01*
X97879612Y-61879169D01*
X97881367Y-61879070D01*
X98436881Y-61852154D01*
X98438715Y-61852080D01*
X99106337Y-61830671D01*
X99108051Y-61830629D01*
X99664123Y-61821654D01*
X99666124Y-61821639D01*
X100333876Y-61821639D01*
X100335876Y-61821654D01*
G37*
%TD.AperFunction*%
%TD*%
M02*
